<?xml version="1.0" encoding="UTF-8"?>
<svg id="Livello_2" data-name="Livello 2" xmlns="http://www.w3.org/2000/svg" viewBox="0 0 116.96 116.96">
  <defs>
    <style>
      .cls-1 {
        fill: #ffc20e;
      }

      .cls-2 {
        fill: #442179;
      }
    </style>
  </defs>
  <g id="Layer_1" data-name="Layer 1">
    <g>
      <rect class="cls-2" width="116.96" height="116.96"/>
      <polygon class="cls-1" points="88.5 13.23 80.52 35.74 72.28 13.23 62.15 13.93 58.48 52.87 69.57 54.49 70.69 39.68 75.69 53.66 85.61 53.66 90.29 39.86 91.55 54.48 102.73 52.87 98.63 13.93 88.5 13.23"/>
      <g>
        <path class="cls-1" d="m61.47,76.5c.11,0,.22-.02.33-.07.44-.18.65-.7.47-1.14-.09-.22-.26-.38-.47-.47-.22-.09-.45-.09-.67,0-.21.09-.38.26-.47.47-.09.22-.09.45,0,.67.14.34.46.54.81.54"/>
        <path class="cls-1" d="m91.37,102.69l.67-2.14s0-.01,0-.02c0,0,0,0,0,0,0,0,0,0,0-.01,0,0,0,0,0,0,0,0,0,0,0-.01,0,0,0,0,0,0,0,0,0,0,0,0,0,0,0,0,0,0,0,0,0,0,0-.01,0,0,0,0,0,0,0,0,0,0,0-.01,0,0,0,0,0,0,0,0,0-.01,0-.02,0,0,0,0,0,0,0,0,0,0,0-.01,0,0,0,0,0,0,0,0,0,0,0-.01,0,0,0,0,0,0,0,0,0,0,0,0,0,0,0,0,0,0,0,0,0,0,0,0,0,0,0,0,0,0,0,0,0,0,0,0,0,0,0,0,0,0,0,0,0,0,0,0,0,0,0,0,0,0,0,0,0,0,0-.01,0,0-.01-.01-.02-.02,0,0,0,0,0,0h0s-1.62-1.45-1.62-1.45c-.05-.05-.13-.07-.2-.06l-2.16.26s0,0,0,0c0,0,0,0,0,0,0,0-.02,0-.03,0,0,0-.01,0-.02,0h0s0,0-.01,0c0,0,0,0,0,0,0,0,0,0,0,0h0s0,0,0,0c0,0,0,0,0,0,0,0,0,0,0,0,0,0,0,0,0,0,0,0,0,0,0,0,0,0,0,0,0,0,0,0,0,0,0,0,0,0,0,0,0,0,0,0,0,0-.01.01,0,0,0,0,0,0,0,0,0,0,0,0,0,0,0,0,0,0,0,0,0,0,0,0,0,0,0,0,0,0,0,0,0,0,0,0,0,0,0,0,0,0,0,0,0,0,0,0,0,0,0,0,0,0h0s0,.01,0,.02v.02s-.67,2.14-.67,2.14c-.03.09,0,.18.06.25l1.57,1.63s0,0,0,0c0,0,0,0,0,0,0,0,0,0,.01.01,0,0,0,0,0,0,0,0,.01,0,.02.01,0,0,0,0,0,0,0,0,.02,0,.03.01,0,0,.01,0,.02,0h0s0,0,.01,0c0,0,0,0,0,0,0,0,0,0,.01,0,0,0,0,0,0,0,0,0,0,0,0,0,0,0,0,0,0,0,0,0,0,0,.01,0,0,0,0,0,0,0,0,0,0,0,.01,0,0,0,0,0,0,0,0,0,0,0,0,0,0,0,0,0,0,0,0,0,0,0,0,0l2.21-.45c.09-.02.16-.08.19-.17"/>
        <path class="cls-1" d="m77.46,69.45l-.1-2.48s0-.01,0-.02c0,0,0,0,0,0,0,0,0,0,0-.01,0,0,0,0,0,0,0,0,0,0,0-.01,0,0,0,0,0,0,0,0,0,0,0,0,0,0,0,0,0,0,0,0,0,0,0-.01,0,0,0,0,0,0,0,0,0,0,0-.01,0,0,0,0,0,0,0,0,0-.01,0-.02h0s0-.01,0-.02c0,0,0,0,0,0,0,0,0,0,0-.01,0,0,0,0,0,0,0,0,0,0,0,0,0,0,0,0,0,0,0,0,0,0,0,0,0,0,0,0,0,0,0,0,0,0,0,0,0,0,0,0,0,0,0,0,0,0-.01,0,0,0,0,0,0,0,0,0,0,0-.01,0,0,0-.02,0-.03-.01,0,0,0,0,0,0,0,0,0,0,0,0l-2.23-.9c-.07-.03-.16-.03-.23,0l-2.15,1.08s0,0,0,0c0,0,0,0,0,0,0,0-.02.01-.03.02,0,0,0,0-.01.01h0s0,0,0,.01c0,0,0,0,0,0,0,0,0,0,0,0h0s0,.01,0,.01c0,0,0,0,0,0,0,0,0,0,0,0,0,0,0,0,0,0,0,0,0,0,0,0,0,0,0,0,0,0,0,0,0,0,0,.01,0,0,0,0,0,0,0,0,0,.01,0,.02,0,0,0,0,0,0,0,0,0,0,0,.01,0,0,0,0,0,0,0,0,0,0,0,.01,0,0,0,0,0,0,0,0,0,0,0,.01,0,0,0,0,0,0,0,0,0,0,0,.01,0,0,0,0,0,0h0s0,.02,0,.02v.02l.1,2.48c0,.1.06.19.16.24l2.24,1.11s0,0,.01,0c0,0,0,0,.01,0,0,0,.01,0,.02,0,0,0,0,0,.01,0,0,0,.01,0,.02,0,0,0,0,0,.01,0,.01,0,.02,0,.03,0,0,0,.01,0,.02,0h0s0,0,.01,0c0,0,0,0,0,0,0,0,0,0,.01,0,0,0,0,0,0,0,0,0,0,0,0,0,0,0,0,0,0,0,0,0,0,0,.01,0,0,0,0,0,0,0,0,0,0,0,.01,0,0,0,0,0,0,0,0,0,0,0,0,0,0,0,0,0,0,0,0,0,0,0,0,0l2.14-1.29c.09-.05.14-.15.14-.25"/>
        <path class="cls-1" d="m60.47,103.89c-.09.02-.18-.02-.24-.09-.08-.1-.08-.25,0-.34l2.54-3.08-1.46-.61c-.09-.04-.15-.12-.16-.22-.01-.1.03-.2.11-.25l5.44-3.5c.1-.07.24-.04.32.06.08.1.08.25,0,.34l-2.57,3.12,1.79.5c.1.03.17.11.19.22.01.11-.03.21-.12.26l-5.77,3.55s-.05.03-.08.03"/>
        <path class="cls-1" d="m67.29,103.74c-.06,0-.12-.02-.17-.07l-.74-.68c-.1-.09-.11-.25-.02-.36l1.81-1.96-1.96-1.81s-.08-.11-.08-.17c0-.07.02-.13.07-.18l.68-.74c.09-.1.25-.11.36-.01l1.97,1.81,1.81-1.97c.09-.1.25-.11.36-.01l.74.68s.08.11.08.18c0,.07-.02.13-.07.18l-1.81,1.96,1.96,1.81s.08.11.08.17-.02.13-.07.18l-.68.74c-.09.1-.25.11-.36.01l-1.96-1.81-1.81,1.97s-.11.08-.18.08h-.01"/>
        <path class="cls-1" d="m68.25,63.93c-.05-.09-.14-.14-.24-.14-.16,0-.56-.03-.88-.14.06-.09.14-.19.21-.3.41-.61.47-.87.48-1.01,0-.1-.05-.2-.13-.25-.09-.05-.2-.06-.29,0,0,0-.99.56-1.84.7-.04,0-.08.01-.12.02l-.15-.73c-.03-.13-.14-.22-.27-.22-1.33-.02-2.32.33-2.98.67.01-.11.01-.21-.01-.32-.11-.52-.61-.85-1.13-.75-.52.11-.85.61-.75,1.13.06.27.22.48.43.62l.11.53.38,1.87,1.14,5.57c.03.13.14.22.27.22.02,0,.04,0,.06,0l.75-.15c.07-.02.14-.06.18-.12.04-.06.06-.14.04-.21l-1.18-5.76c.67-.34,1.51-.5,2.15-.57l.17.62s0,.02,0,.02c0,0,0,0,0,0,0,0,0,.01,0,.02,0,0,0,0,0,0,0,0,0,0,0,.01,0,0,0,0,0,0,0,0,0,0,0,.01,0,0,0,0,0,0,0,0,0,.01.01.02h0s0,.01.01.02c0,0,0,0,0,0,0,0,0,0,.01.01,0,0,0,0,0,0,0,0,.01,0,.02.01h0s.01,0,.02,0c0,0,0,0,0,0,0,0,.01,0,.02,0,0,0,0,0,0,0,0,0,0,0,.01,0,0,0,0,0,0,0,0,0,.01,0,.02,0,0,0,0,0,0,0,0,0,.01,0,.02,0s.01,0,.02,0c.02,0,.11,0,.26,0,.67,0,2.45-.11,3.08-1.18.05-.09.05-.19,0-.28"/>
        <path class="cls-1" d="m89.42,67.71c-.09,0-.17-.04-.22-.11-.01-.01-.28-.38-.5-.86-.31-.69-.37-1.27-.17-1.72.27-.62.84-.77,1.28-.64.3.09.58.32.7.65.33-.13.69-.07.95.09.39.24.65.76.37,1.38-.21.45-.68.8-1.4,1.02-.51.16-.96.19-.98.19,0,0-.01,0-.02,0"/>
        <path class="cls-1" d="m69.3,64.45c-.09,0-.17-.04-.22-.11-.01-.01-.28-.38-.5-.86-.31-.69-.37-1.27-.17-1.72.27-.62.84-.77,1.28-.64.3.09.58.32.7.65.33-.13.69-.07.95.09.39.24.65.76.37,1.38-.21.45-.68.8-1.4,1.02-.51.16-.96.19-.98.19,0,0-.01,0-.02,0"/>
        <path class="cls-1" d="m61.73,83.43c-.06,0-.13-.02-.18-.06l-.8-.65c-.07-.06-.11-.14-.1-.23,0-.09.05-.17.13-.22l.58-.37c-.02-.21.04-.41.18-.58s.33-.27.54-.29c.21-.02.42.04.59.18.34.28.39.78.11,1.12-.13.16-.33.26-.53.29l-.25.64c-.03.08-.1.15-.19.17-.02,0-.05,0-.07,0"/>
        <path class="cls-1" d="m87.34,86.3c0-.38-.18-.7-.53-.92h-.01c-.26-.17-.56-.24-.76-.26-.6-.05-.94.47-1.03.75-.04.11,0,.24.11.3s.23.05.32-.04c.01-.01.05-.06.16-.03.1.02.19.09.23.13-.21.13-.87.33-1.89.37-.47.02-.91-.08-1.25-.19.62-.1,1.21.04,1.22.04.11.03.23-.02.29-.13.06-.1.03-.23-.06-.31-.05-.04-.07-.07-.09-.09.08-.06.31-.13.52-.16.11-.01.2-.09.22-.19.03-.1-.02-.21-.1-.27-.07-.05-.1-.08-.1-.1.01-.03.08-.12.3-.23.17-.09.34-.15.34-.15.1-.03.17-.13.18-.24,0-.11-.06-.21-.16-.25-2.03-.81-3.43,0-3.49.04-.06.04-.11.1-.12.18-.01.07,0,.15.06.21.16.2.23.36.19.5-.05.16-.25.33-.57.46-.55-.62-.52-1.4-.52-1.41,0,0,0,0,0-.01v-.61c0-.1-.05-.19-.14-.23-.09-.04-.19-.03-.27.02l-.54.41c-.28.03-.89.15-1.16.21-.07.01-.12.05-.16.11l-.22.32c-.08.04-.23.13-.39.22-.45.27-.54.39-.58.52-.07.3.29.46.44.52.17.08.34.13.35.13.04.01.09.02.13,0,0,0,.23-.05.48-.07.42-.04.53.01.55.02.06.05.07.11.09.34.01.13.03.28.07.48l-.83,1.06c-.07.09-.07.22,0,.31.02.03.04.05.07.06.07.04.16.05.23.02l1.27-.53c.61.29,1.53.45,2.22.57.13.02.25.04.35.06.07.01.14.02.21.03l.82.64s.02.01.02.02c.08.05.18.05.26,0,.09-.05.14-.15.13-.26l-.05-.43c.42-.07.87-.21,1.46-.39.71-.22,1.11-.4,1.36-.62.34-.3.39-.65.39-.95"/>
        <path class="cls-1" d="m71.55,66.16c-.63-.89-1.43-1.08-2-1.09-.6,0-1.06.2-1.07.2-.12.05-.19.18-.16.31.03.13.14.22.27.22.8.02,1.33.21,1.55.55.06.09.09.19.1.28-.09-.1-.25-.12-.37-.04-.1.07-.14.2-.11.32-.4-.22-.8-.41-1.22-.53-.38-.1-.73-.13-1.06-.06-.03-.02-.06-.03-.1-.04-.07-.01-.15,0-.21.05l-.45.32-.42.29c-.09.06-.13.17-.12.27-.17.27-.27.59-.31.96-.05.45,0,.92.06,1.39-.09-.06-.22-.06-.31,0-.11.08-.15.23-.09.35-.08-.05-.16-.11-.22-.19-.24-.32-.24-.88.02-1.64.04-.12,0-.26-.12-.33-.11-.07-.26-.05-.35.04-.01.01-.36.37-.56.94-.19.53-.28,1.35.34,2.25.38.55.83.65,1.15.65.31,0,.59-.11.8-.22l.15.21c.08.12.24.15.36.09,0,0,.02,0,.03-.02.13-.09.16-.26.07-.39l-.03-.05.95-.67s.08.02.12.03c.11.02.21.03.31.02l.88,1.25c.04.06.11.1.18.12.06.01.13,0,.18-.03,0,0,.02,0,.03-.02l.87-.61c.13-.09.16-.26.07-.39l-.88-1.26c.04-.1.07-.2.09-.3,0-.04.01-.08.02-.12l.95-.67.03.05c.08.12.24.15.36.08,0,0,.02,0,.03-.02.13-.09.16-.26.07-.39l-.15-.21c.17-.16.37-.39.48-.68.11-.29.17-.76-.22-1.3"/>
        <path class="cls-1" d="m97.67,63.27c.11,0,.22-.02.33-.07.44-.18.65-.7.47-1.14-.09-.22-.26-.38-.47-.47-.22-.09-.45-.09-.67,0-.21.09-.38.26-.47.47-.09.22-.09.45,0,.67.14.34.46.54.81.54"/>
        <path class="cls-1" d="m99.95,66.22s-.09-.03-.12-.06c0,0,0,0-.01-.01-.14-.12-1.11-.99-1.08-1.8,0-.29.15-.55.4-.74.55-.41.72-.86.5-1.34-.06-.13-.02-.28.1-.35s.27-.05.37.06c.09.11.89,1.09.8,1.85-.03.25-.15.45-.35.6-.38.28-.59.57-.59.82,0,.25.18.43.21.47,0,0,0,0,.01,0,.12.1.13.27.03.39-.07.08-.17.11-.27.1"/>
        <path class="cls-1" d="m71.54,74.39c-.08-.18-.26-.27-.54-.27-.18,0-.42.02-.72.08-.55.11-1.28.33-2.13.64-.05-.04-.1-.09-.15-.13.11-.4.21-.77.29-1.11.12-.54.19-.98.21-1.3,0-.19.03-.68-.31-.81-.18-.07-.37,0-.57.19-.12.12-.26.31-.42.56-.27.42-.59,1.03-.96,1.83-.46-.02-.92.07-1.35.27-.74.34-1.31.94-1.6,1.7-.13.35-.2.72-.2,1.09-.78.43-1.42.82-1.87,1.16-.44.33-.88.72-.71,1.09.11.25.41.28.64.28.08,0,.14,0,.19-.01.32-.03.75-.13,1.28-.29.34-.1.71-.22,1.1-.36.13.16.27.32.42.45-.23.8-.36,1.46-.38,1.96,0,.22-.04.88.39,1.05.06.02.11.03.16.03.27,0,.49-.27.57-.36.18-.22.39-.55.63-.98.15-.28.31-.6.47-.95.09,0,.18,0,.26,0,.4-.01.79-.1,1.16-.27,1.32-.59,2.01-2.01,1.74-3.37.36-.2.7-.4,1-.59.47-.29.83-.55,1.06-.77.14-.13.5-.46.35-.79m-3.99-1.67c.17-.29.3-.46.38-.56,0,.22-.04.68-.26,1.58-.05.21-.11.44-.18.67-.1-.05-.2-.09-.3-.13-.13-.05-.26-.09-.4-.12.28-.59.53-1.08.75-1.44m-4.87,6.02c-.9.28-1.35.35-1.57.35.22-.22.78-.67,2.01-1.35.05.22.11.43.21.65.02.04.04.08.06.12-.25.09-.49.17-.71.24m2.42,1.9c-.42.82-.67,1.12-.78,1.22-.05-.21-.06-.82.29-2.08.14.08.28.15.43.2.11.04.22.08.34.11-.09.2-.18.38-.27.55m4.5-5.02c-.2.12-.42.25-.65.38-.02-.04-.03-.08-.05-.12-.09-.21-.21-.41-.34-.58,1.33-.47,2.04-.6,2.35-.61-.15.16-.5.45-1.3.94"/>
        <path class="cls-1" d="m70.72,95.95s-.1-.07-.16-.07h-.31c-.09-.17-.21-.3-.36-.4v-.31c.01-.06,0-.12-.05-.16-.04-.04-.1-.07-.16-.07l-.75-.03c-.12,0-.23.09-.23.22v.31c-.17.09-.3.21-.4.36h-.31c-.12-.02-.23.08-.23.2l-.03.75c0,.06.02.12.06.16.04.04.1.07.16.07h.31c.09.17.21.3.36.41v.31c-.02.06,0,.12.05.16.04.04.1.07.16.07l.75.03s.07,0,.1-.02c.02,0,.04-.02.06-.04.04-.04.07-.1.07-.16v-.31c.17-.09.3-.21.4-.36h.31c.06.01.12,0,.16-.05.04-.04.07-.1.07-.16l.03-.75c0-.06-.02-.12-.06-.16"/>
        <path class="cls-1" d="m99.62,102.69s-.04-.07-.08-.09l-.19-.1c-.01-.13-.05-.25-.12-.35l.1-.2s.02-.08,0-.12c-.01-.04-.04-.07-.08-.09l-.47-.23c-.08-.04-.17,0-.21.07l-.1.19c-.12.01-.24.05-.35.12l-.19-.1c-.08-.04-.17,0-.21.07l-.23.47s-.02.08,0,.12c.01.04.04.07.08.09l.19.1c.01.12.05.24.12.35l-.1.19s-.02.08,0,.12c.01.04.04.07.08.09l.47.23s.05.02.07.02c.02,0,.03,0,.05,0,.04-.01.07-.04.09-.08l.1-.19c.13-.01.25-.05.35-.12l.2.1s.08.02.12,0c.04-.01.07-.04.09-.08l.23-.47s.02-.08,0-.12"/>
        <path class="cls-1" d="m66.35,87.14l-.09-1.39c0-.15-.13-.26-.27-.26h-.59s.04-1.57.04-1.57c0-.16-.13-.3-.29-.31l-1.36-.04c-.16,0-.3.12-.31.29l-.04,1.56h-.14s-.03,0-.04,0l-2.17.29c-.14.02-.25.14-.24.28v.97c.01.12.09.23.21.26.12.04.24,0,.31-.11l.27-.39,1.36.11v.12s-1,.29-1,.29c-.13.04-.22.17-.2.31l.18,1.24c.02.13.13.23.26.24h.02c.12,0,.24-.08.27-.2l.18-.65.34-.06.02.67-1.69,1.6-.68-.34c-.12-.06-.26-.03-.34.07-.08.1-.09.24-.01.35l.8,1.1c.09.12.25.15.38.07l2.53-1.64.81,2.2-.7.21c-.13.04-.22.17-.2.31.02.14.14.24.28.24h1.53c.08-.01.15-.04.2-.1.05-.05.08-.13.08-.2l-.14-3.48.43-1.97s0-.05,0-.08m-4.92,3.9h0s.02-.01.03-.01h-.02Z"/>
        <path class="cls-1" d="m81.79,77.54c-.24,0-.5-.04-.78-.16-.08-.03-.14-.1-.16-.18-.3-1.01.27-1.73.3-1.76,0-.01.02-.02.03-.03l.85-.77c.12-.1.29-.1.4.02l1.28,1.42c.1.11.09.29-.02.4l-.85.77s-.02.02-.03.03c-.02.01-.43.27-1.01.27"/>
        <path class="cls-1" d="m82.38,90.73c-.06.23-.17.47-.35.71-.05.07-.13.11-.21.11-1.05.04-1.61-.7-1.63-.73,0-.01-.02-.02-.02-.04l-.53-1.01c-.07-.14-.02-.31.12-.38l1.69-.88c.14-.07.31-.02.38.12l.53,1.02s.01.03.02.04c0,.03.16.48,0,1.05"/>
        <path class="cls-1" d="m71.5,91.77c-.44-.92-1.54-1.31-2.45-.88-.85.4-1.25,1.37-.97,2.23l-.17.08s0,0-.01,0l-.1-.21c-.06-.12-.2-.17-.32-.11l-2.39,1.14c-.12.06-.17.2-.11.32l.4.85c.03.06.08.1.14.12.03.01.07.02.1.01.03,0,.05-.01.08-.02l2.39-1.14c.12-.06.17-.2.11-.32l-.1-.21s0,0,.01,0l.17-.08c.22.34.54.6.93.74.26.09.53.13.79.1.21-.02.42-.08.62-.17.44-.21.78-.58.95-1.05.17-.46.14-.96-.07-1.41"/>
        <path class="cls-1" d="m92.01,90.05s-.05-.04-.08-.07c-.11-.15-.08-.35.07-.46l1.32-.99.56-2.45c.02-.08.06-.14.12-.19l1.14-.86c.1-.07.22-.08.33-.04.07.03.13.09.16.16l.3-.5s.06-.07.09-.1c.09-.07,2.31-1.6,4.35-1.2,0,0,.02,0,.02,0,.07.02.13.06.18.12h0s0,.01.01.02h0c.04.06.06.13.05.2-.08,2.39-3.56,4.65-3.71,4.75-.01,0-.03.02-.04.02l-1.62.73c-.05.02-.11.03-.16.03l-1.47-.12-1.25.94c-.12.09-.27.09-.38,0"/>
        <path class="cls-1" d="m90.86,64.06s-.04,0-.06,0l-2.32-.35c-.12-.02-.21-.13-.21-.25l.05-1.46c0-.1.07-.19.17-.22.1-.03.21,0,.27.09l.46.63.49-.57c.06-.07.14-.1.23-.08.08.01.16.06.19.14l.3.68.63-.47c.08-.06.2-.06.28,0,.09.06.13.16.1.26l-.38,1.42c-.03.1-.11.17-.21.18"/>
        <path class="cls-1" d="m99.66,89.56s.45.06.45-.27c0-.39-1.01-.65-1.01-.65,0,0,.01-.13-.02-.27-.04-.17-.15-.37-.45-.37h0c-.3,0-.41.19-.45.37-.04.14-.02.27-.02.27,0,0-1.01.25-1.01.65,0,.33.45.27.45.27,0,0,.29-.01.2.16-.09.18-.51.88-.52,1.07-.01.2,0,.2.13.2h.75s.09,0,.16-.13c.07-.13.23-.39.23-.39,0,0,.06-.08.09-.08.03,0,.09.08.09.08,0,0,.15.26.23.39.07.13.16.13.16.13h.75c.14,0,.14,0,.13-.2-.01-.2-.42-.9-.52-1.07-.09-.18.2-.16.2-.16"/>
        <path class="cls-1" d="m85.46,78.91c-.59-.51-1.4-.83-2.28-.92-.88-.09-1.74.07-2.42.45-.7.39-1.13.98-1.2,1.65,0,.09-.01.18,0,.26-.01.03-.03.06-.03.09l-.06.63c-.07.67.23,1.33.84,1.85.59.51,1.4.83,2.28.92.16.02.32.02.48.02.71,0,1.39-.16,1.94-.47.7-.39,1.13-.98,1.2-1.65l.06-.63s0-.07,0-.1c.02-.08.04-.17.05-.26h0c.07-.67-.23-1.33-.84-1.85m-3.67,1.18s.12-.87,1.07-.87c.18,0,.39.03.64.11,1.54.47.6,1.51.6,1.51,0,0-.64.32-.48.53l.15.21-2.04-.21.16-.34-.19-.32.17-.14-.33-.08.25-.41Z"/>
        <path class="cls-1" d="m61.67,96.72c-.09,0-.17-.04-.22-.11-.01-.01-.28-.38-.5-.86-.31-.69-.37-1.27-.17-1.72.27-.62.84-.77,1.28-.64.3.09.58.32.7.65.33-.13.69-.07.95.09.39.24.65.76.37,1.38-.21.45-.68.8-1.4,1.02-.51.16-.96.19-.98.19,0,0-.01,0-.02,0"/>
        <path class="cls-1" d="m89.12,90.47c-.09,0-.17-.03-.23-.09-.01-.01-.31-.35-.57-.82-.37-.66-.47-1.23-.3-1.7.23-.64.78-.83,1.22-.74.31.07.6.28.75.6.32-.15.68-.13.96.02.4.21.71.71.47,1.35-.17.47-.62.84-1.32,1.12-.49.19-.94.26-.96.27,0,0-.01,0-.02,0"/>
        <path class="cls-1" d="m70.85,83c-.44-.48-.28-1.5-.18-1.85l.16.03s.02,0,.03,0c.07,0,.13-.02.19-.06.06-.05.1-.11.12-.19l.12-.77c.02-.16-.08-.31-.24-.33l-.31-.05.24-.83c.02-.08.01-.16-.03-.23-.04-.07-.11-.11-.19-.12l-1.16-.18c-.08-.01-.16,0-.22.06-.06.05-.1.12-.1.2l-.02.87-.31-.05c-.08-.01-.15,0-.21.05-.06.05-.1.11-.12.19l-.12.77c-.01.08,0,.15.05.21.05.06.11.1.19.12l.16.03c-.01.36-.17,1.38-.73,1.71-1.08.63-1.66,1.48-1.56,2.28.09.71.71,1.27,1.69,1.53,0,0,.02,0,.03,0l1.19.19s.02,0,.03,0h0c1.01.05,1.77-.3,2.08-.95.35-.74.05-1.73-.79-2.65"/>
        <path class="cls-1" d="m88.73,68.54h.78c.16-.01.3.12.3.28v.03c.54.06.93.3,1.2.75.05-.04.1-.09.15-.14.55-.62,1.12-1.26,2.16-.97.48.13.85.49,1.02.99.19.56.1,1.17-.25,1.63-.3.4-.71.59-1.2.55-.35-.03-.6-.16-.63-.18-.1-.06-.16-.17-.14-.29.02-.12.11-.21.22-.23,0,0,.25-.05.49-.19.4-.24.38-.52.37-.62-.02-.25-.09-.4-.22-.44-.27-.08-.79.21-1.12.62-.2.24-.44.42-.73.52-.24.57-.65.89-1.26.97v.08c0,.08-.03.15-.08.21-.06.06-.13.09-.21.09h-.78c-.06.01-.11,0-.16-.03-.08-.05-.14-.14-.14-.25l-.04-3.08c0-.16.13-.3.29-.3"/>
        <path class="cls-1" d="m97.01,72.37c-.14-.03-.28-.06-.42-.1-.61-.19-1.09-.72-1.29-1.42-.16-.58-.08-1.12.21-1.45.27-.31.26-.92.26-.93,0-.04,0-.08.02-.12.24-.56.53-.67.84-.74.18-.04.28-.06.4-.39.04-.1.12-.17.23-.18.1-.01.21.03.27.12.01.02.12.18.18.4.09.34-.01.63-.27.81-.03.02-.05.04-.04.1,0,.05.04.09.06.11.34-.26.69-.65.41-1.41-.37-1-.19-1.31.15-1.77.02-.02.03-.05.05-.07.08-.11.22-.14.34-.09.12.05.19.19.16.31,0,.03-.15.77.45,1.22.4.3.56.85.48,1.64-.05.44-.16.83-.2.97,0,.02,0,.04,0,.06.04-.06.08-.13.11-.2.04-.08.12-.14.21-.15.09-.01.18.01.24.08.09.09.49.59-.16,1.89-.31.62-.78,1.05-1.37,1.25-.4.13-.85.15-1.32.07"/>
        <g>
          <path class="cls-1" d="m92.66,78.87s-.11-.04-.16-.02l-.28.07c-.12-.12-.27-.21-.43-.25l-.07-.28c-.01-.05-.05-.1-.1-.13-.05-.03-.11-.04-.16-.02l-.69.17c-.11.03-.18.14-.15.26l.07.28c-.12.12-.2.27-.25.43l-.28.07c-.11.03-.18.15-.15.26l.17.69c.01.05.05.1.1.13.05.03.11.04.16.02l.28-.07c.12.12.27.2.43.26l.07.28c.01.05.05.1.1.13.05.03.11.04.16.02l.69-.17s.06-.02.09-.05c.02-.01.03-.03.04-.05.03-.05.04-.11.02-.16l-.07-.28c.12-.12.21-.27.26-.43l.28-.07c.05-.01.1-.05.13-.1.03-.05.04-.11.02-.16l-.17-.69c-.01-.05-.05-.1-.1-.13"/>
          <path class="cls-1" d="m92.29,82.32l-.26-.26c-.05-.05-.12-.08-.19-.08-.07,0-.14.03-.19.08l-.31.32s-.1-.05-.14-.07l.03-.45c.01-.15-.1-.27-.24-.28l-.36-.03c-.29-.02-.58,0-.86.08l-.35.09c-.14.04-.22.18-.19.32l.12.43s-.08.06-.12.09l-.37-.25c-.06-.04-.13-.05-.2-.04-.07.01-.13.05-.17.11l-.2.3c-.16.24-.29.51-.36.79l-.09.35c-.02.07,0,.14.03.2.03.06.09.1.16.12l.43.12s0,.1.01.15l-.4.2c-.06.03-.11.08-.13.15-.02.07-.02.14.01.2l.16.33c.12.26.29.5.5.7h0s.25.26.25.26c.05.05.12.08.19.08.07,0,.14-.03.19-.08l.31-.32s.09.04.14.06l-.03.45c0,.07.02.14.06.19s.11.09.18.09l.36.03c.29.02.58,0,.86-.08l.35-.09c.14-.04.22-.18.19-.32l-.11-.43s.08-.06.12-.09l.37.25c.1.07.23.06.32-.02.02-.01.03-.03.05-.05l.2-.3c.17-.24.29-.5.36-.79l.1-.35c.02-.07,0-.14-.03-.2-.03-.06-.09-.1-.16-.12l-.43-.12s0-.1-.01-.15l.41-.19c.06-.03.11-.08.14-.15.02-.07.02-.14-.01-.2l-.16-.33c-.13-.26-.3-.5-.5-.71"/>
        </g>
        <path class="cls-1" d="m63.68,74.31s-.08,0-.12,0c-.64-.07-1.11-.64-1.05-1.28s.64-1.11,1.28-1.05,1.11.64,1.05,1.28c-.06.6-.57,1.05-1.16,1.05"/>
        <path class="cls-1" d="m89.87,93.63s-.08,0-.12,0c-.64-.07-1.11-.64-1.05-1.28s.64-1.11,1.28-1.05,1.11.64,1.05,1.28c-.06.6-.57,1.05-1.16,1.05"/>
        <path class="cls-1" d="m98.2,74.6s-.06,0-.09.02c-.08.03-.19.1-.28.17.02-.07.04-.14.05-.21h.01c.13-.06.26-.12.32-.17.16-.12.2-.34.08-.51-.1-.14-.27-.18-.42-.13-.03.01-.06.03-.08.04-.02.01-.04.03-.06.05-.01-.05-.03-.1-.06-.15-.09-.17-.24-.27-.33-.23,0,0,0,0-.01,0-.09.05-.09.23,0,.41.03.06.07.1.11.14-.04.04-.06.1-.07.16-.02.17-.05.35-.1.52-.01-.07-.03-.12-.04-.16-.06-.19-.26-.3-.45-.24,0,0-.02,0-.03,0-.18.07-.27.26-.22.44.04.12.24.42.43.6-.09.15-.2.3-.33.45-.02-.25-.06-.5-.09-.59-.06-.19-.27-.3-.46-.24,0,0-.01,0-.02,0-.18.07-.27.26-.22.45.04.12.22.5.41.76-.12.11-.25.22-.38.32-.03-.04-.07-.06-.12-.08l-.64-.23c.47-.59.71-1.25.63-1.84l.09-.33.55-.24c.09-.04.15-.12.16-.21.02-.09-.01-.19-.08-.25l-.62-.6c-.2-.34-.49-.48-.69-.54-.3-.08-.63-.05-.86.09-.11.06-.3.2-.43.41-.07.12-.12.25-.13.38l-1.77-1.47c-.06-.05-.14-.07-.22-.06-.08.01-.15.05-.19.12,0,.01-.22.33-.29.76-.04.23-.04.51.07.81l-1.37-.44c-.07-.02-.15-.02-.21.02-.07.03-.12.09-.14.16-.36,1.12.26,2.34,1.4,2.85l-.17.19h-.02s-.04.03-.06.04l-1.13-.24c-.07-.01-.13,0-.19.03-.47.25-.86.59-1.1.94-.28.41-.35.8-.18,1.12.17.31.54.48,1.03.46.29,0,.61-.08.93-.2.15-.06.3-.13.45-.21.06-.03.1-.08.13-.14l.33-.86c.25.29.53.49.85.6.44.15.94.12,1.47-.08.12-.05.25-.11.38-.17l.27.26c-.78.33-1.38.49-1.39.5-.15.04-.24.19-.2.34.04.15.19.24.34.2.03,0,.44-.12,1.02-.34.41-.16.91-.37,1.41-.65.51-.29.96-.59,1.34-.92.08.16.26.33.36.41.1.08.24.1.36.06.06-.02.11-.06.15-.11.13-.16.1-.38-.05-.51-.09-.07-.3-.14-.49-.15.03-.04.07-.07.1-.11.14-.15.27-.31.38-.47.04.19.41.48.56.57.1.06.21.06.31.02.07-.03.14-.08.18-.16.1-.17-.04-.3-.22-.4-.15-.08-.56-.23-.75-.17.08-.13.16-.27.22-.41.14.08.44.05.6.04.04,0,.07-.01.1-.02.15-.06.24-.2.23-.36-.02-.2-.19-.35-.39-.34m-3.25,2.54c-.13.07-.25.14-.38.2,0,0,0,0,0,0l-.31-.3c.16-.11.31-.23.44-.35l.64.23c-.13.08-.26.16-.4.23"/>
        <path class="cls-1" d="m71.14,89.64s-.05.02-.07.02l-3.05.51c-.16.03-.32-.07-.36-.23l-.53-1.86c-.04-.13.01-.27.12-.35.11-.08.26-.08.37,0l.84.6.38-.91c.04-.11.14-.18.25-.19.11-.02.22.01.3.1l.66.73.6-.84c.08-.11.22-.16.35-.12.13.04.22.15.23.29l.11,1.93c0,.14-.07.26-.2.31"/>
        <path class="cls-1" d="m87.7,97.56c-.08,0-.16,0-.25-.01-.6-.06-.98-.29-1.13-.68-.18-.47,0-1.14.52-1.98.37-.6.79-1.07.8-1.09l.21-.24.16.28s.33.57.57,1.23c.35.93.39,1.62.11,2.05-.2.3-.53.46-1,.46"/>
        <path class="cls-1" d="m73.38,65.61c-.08,0-.17,0-.26-.01-.63-.06-1.04-.31-1.2-.73-.19-.5,0-1.2.55-2.1.4-.63.83-1.13.85-1.15l.23-.26.17.3s.34.6.6,1.3c.37.99.41,1.72.12,2.17-.21.32-.56.48-1.06.48"/>
        <path class="cls-1" d="m95.11,61.84l-2.97,1.7c-.06.04-.11.1-.13.17l-.14.52c-.02.08,0,.17.05.24l1.83,2.45c.08.1.21.14.33.09l2.83-1.17c.08-.03.14-.1.16-.19l.14-.52c.02-.07.01-.15-.03-.21l-1.68-2.99c-.08-.14-.25-.18-.39-.11Z"/>
        <path class="cls-1" d="m78.35,70.31c-.56-.02-.84.32-1.08.6-.13.16-.27.31-.44.39h-.16c-.16-.01-.3.12-.31.28,0,.16.12.3.29.31h.23s-.12,3.4-.12,3.4c0,.08.03.16.08.21.05.05.12.08.19.09l-.12,3.4c0,.16.11.29.27.3l-.11,3.1h-.19c-.16-.01-.3.12-.31.28,0,.16.12.3.29.31l1.05.04.56.02h0s.49.02.49.02c.14,0,.25-.08.29-.21,0-.03.01-.05.01-.08,0-.16-.12-.3-.29-.31h-.19s.11-3.1.11-3.1c.07,0,.14-.03.19-.08.04-.03.06-.08.08-.13,0-.03.01-.05.01-.08l.12-3.4c.07,0,.14-.03.19-.08.04-.03.06-.08.08-.13,0-.03.01-.05.01-.08l.12-3.39h.23c.14.01.25-.07.29-.2,0-.03.01-.05.01-.08,0-.16-.12-.3-.29-.31h-.17c-.16-.11-.28-.26-.4-.43-.21-.29-.48-.65-1.03-.67Z"/>
        <path class="cls-1" d="m88.26,92.01l-.24-.47c.48-.16.72-.34.75-.57.03-.25-.21-.4-.22-.41-.19-.14-.33-.12-.43-.08-.2.09-.3.36-.35.59l-.23-.45c.12-.28.37-1.04.05-1.63-.21-.38-.61-.61-1.2-.68-.06,0-.11.02-.14.06,0,0,0,0,0,.01,0,0,0,0,0,0-.05.03-.08.08-.08.13-.31.5-.38.95-.22,1.34.05.13.13.24.21.33.39.43,1.02.59,1.16.62l.06.12c-.21-.13-.41-.19-.59-.16-.4.06-.58.46-.6.51h0s0,0,0,0c0,0,0,.01,0,.02,0,.01,0,.02,0,.03,0,0,0,0,0,0,0,0,0,.02,0,.02,0,.01,0,.03.01.04,0,0,0,0,0,0,.06.11.13.21.2.29.15.17.33.27.52.29.36.04.68-.2.83-.35l.25.5s.01.02.02.03c.04.05.12.07.18.04.07-.04.1-.13.07-.2Z"/>
        <g>
          <path class="cls-1" d="m89.55,97.45c0-.07.01-.13.03-.19l.95-2.72c.07-.2.24-.35.48-.42l.61-1.37c.04-.1.16-.15.26-.11l.82.29c.1.04.16.14.13.25l-.37,1.45c.14.2.19.43.12.63l-.95,2.72c-.07.21-.26.37-.52.43-.23.06-.5.04-.76-.05-.26-.09-.48-.24-.63-.43-.12-.15-.17-.31-.17-.47Z"/>
          <g>
            <path class="cls-1" d="m92,92.42s0-.06.02-.09c.02-.03.39-.79,1.49-.89.05,0,.1,0,.14.04l.9.65c.09-.04.21-.11.24-.19.11-.28.46-.7.5-.75.05-.06.13-.09.21-.07.08.02.14.08.15.16l.22,1.01c.01.06,0,.12-.04.17-.11.14-.66.83-.95.96-.03.01-.06.02-.09.02-.4,0-.9-.04-1.05-.22-.03-.04-.08-.11-.14-.2-.09-.13-.28-.4-.42-.52l-.28.25c-.06.05-.14.07-.21.04l-.55-.19c-.06-.02-.1-.06-.12-.12-.01-.03-.02-.05-.02-.08Z"/>
            <path class="cls-1" d="m92.14,91.59h0s0-.58,0-.58c0-.06.03-.12.08-.16.05-.04.11-.05.17-.04l.67.16.21-.47c.03-.06.08-.1.15-.12.07-.01.13,0,.18.05l.5.47.16-.67c.02-.08.09-.14.17-.16.08-.01.17.02.21.1l.28.46.42-.72c.04-.07.12-.11.2-.1s.15.06.18.14l.24.69.73-.05c.07,0,.14.03.18.09.04.06.05.14.02.2l-.28.6.82-.04c.09,0,.17.05.2.14.03.08,0,.18-.07.23l-1.07.83.37.27c.06.04.09.12.08.19-.01.08-.06.14-.13.17l-1.29.49.03.23c.01.07-.02.15-.08.19-.06.05-.14.06-.21.03l-.77-.31c-.11-.04-.16-.16-.11-.27.04-.11.16-.16.27-.11l.43.17v-.04c-.02-.09.03-.19.13-.22l1.09-.42-.29-.21c-.05-.04-.08-.1-.08-.16,0-.07.03-.13.08-.17l.77-.6-.51.02c-.07,0-.14-.03-.18-.09-.04-.06-.05-.14-.02-.2l.28-.59-.54.03c-.09,0-.18-.05-.21-.14l-.14-.42-.36.62c-.04.06-.1.1-.18.1-.07,0-.14-.04-.18-.1l-.2-.32-.12.53c-.02.07-.07.13-.14.15-.07.02-.15,0-.2-.05l-.55-.52-.16.36c-.04.09-.14.14-.24.12l-.59-.14v.32c0,.11-.1.21-.22.2-.11,0-.2-.09-.2-.21Z"/>
          </g>
        </g>
        <path class="cls-1" d="m99.3,98.83c0-.11-.07-.2-.17-.23l-1.07-.31s.02-.06.02-.09c.04-.14.07-.26.1-.38l.07-.23-4.1-1.18-.07.23c-.04.14-.09.3-.13.47l-.95-.27c-.1-.03-.21.01-.27.1-.02.03-.49.8-.24,1.53.15.43.5.74,1.04.94,0,0,.01,0,.02,0,.03,0,.07.01.1,0,.05.59.26,1.12.74,1.47l-.35,1.23-1.13-.33-.31,1.07,3.56,1.02.31-1.07-1.13-.33.35-1.22c.3,0,.59-.07.84-.21.27-.15.49-.37.67-.63.03.03.06.05.1.06,0,0,.01,0,.02,0,.57.12,1.03.04,1.38-.24.6-.49.61-1.38.61-1.42Zm-6.34-.51c-.12-.35.01-.75.11-.96l.78.22c-.1.43-.18.9-.2,1.35-.36-.15-.6-.35-.69-.62Zm5.43,1.56c-.23.18-.55.23-.95.15.21-.4.37-.85.49-1.27l.87.25c-.03.23-.13.64-.42.87Z"/>
        <path class="cls-1" d="m74.17,75.27h.32s-.34,4.15-.34,4.15c0,.04,0,.07.02.1l.71,1.23s0,0,0,0c.03.04.08.08.14.08s.11-.03.14-.07c0,0,0,0,0,0l.77-1.19s.03-.06.03-.1l-.13-4.15h.32c.1.01.18-.06.18-.16v-.42c.01-.1-.06-.18-.16-.18h-.47s.04-1.4.04-1.4c0,0,0,0,0,0,.15-.14.24-.33.25-.54.01-.42-.32-.77-.74-.78s-.77.32-.78.74c0,.21.08.41.22.55,0,0,0,0,0,0l-.04,1.39h-.47c-.1-.01-.18.06-.18.16v.42c-.01.1.06.18.16.18Z"/>
        <path class="cls-1" d="m74.28,73.57c0-.07-.06-.12-.13-.12-.07,0-.12.06-.12.13,0,0,0,.04-.05.08-.07.06-.28.16-.84.1h-.06s.04-.09.04-.14l.34-1.84c.02-.22-.13-.41-.35-.43l-1.53-.17c-.22-.02-.41.13-.44.36l-.1,1.85c0,.05,0,.1.01.15h-.02c-.56-.06-.74-.2-.8-.28-.04-.05-.03-.08-.03-.09.02-.06-.02-.13-.09-.15-.07-.02-.14.02-.15.08,0,.01-.04.14.06.28.14.21.47.34.98.4l.38.04.67.07.63.07h0s.42.05.42.05c.51.06.87,0,1.05-.17.12-.12.12-.25.12-.26Z"/>
        <polygon class="cls-1" points="100.31 80.66 100.04 79.9 100.67 79.66 100.4 78.9 99.76 79.09 99.5 78.33 98.87 78.52 98.65 77.88 95.82 78.46 93.29 80.5 94.25 83.27 95.23 82.93 96.09 83.12 96.87 83.25 98.99 82.51 98.7 81.65 96.94 81.86 97.28 81.7 100.31 80.66"/>
        <g>
          <path class="cls-1" d="m99.49,95.15s-.09-.2-.21-.18c-.05.01-.12.05-.12.18,0,.02-.06.04-.11.05-.05-.01-.15-.03-.24,0l-.06.02s-.02,0-.04.01c.05-.06.16-.17.39-.35.02-.01.12-.03.21-.03.11,0,.26-.11.44-.34.13-.17.19-.32.17-.45-.01-.08-.06-.14-.1-.17-.03-.02-.06-.03-.1-.02-.03,0-.06.03-.08.06-.09.15-.31.24-.35.23-.04-.03-.08-.04-.13-.04.06-.02.12-.04.15-.04.02,0,.04,0,.05-.02.01,0,.1-.07.2-.22.21-.3.1-.54.01-.63-.03-.03-.08-.04-.13-.03-.04.02-.08.05-.08.1,0,.02-.05.07-.13.12-.07.04-.13.04-.14.04-.08-.03-.16,0-.24.04.02-.06.03-.12.02-.18-.01-.13.19-.26.26-.29.04-.02.06-.05.07-.1,0-.04-.01-.08-.04-.11-.3-.24-.73.05-.93.26-.02.02-.03.05-.03.08,0,0,0,.09-.06.22,0-.03,0-.07,0-.1,0-.06.09-.3.2-.52.02-.03.02-.07,0-.11-.02-.03-.05-.06-.08-.07-.03,0-.17-.03-.43.12-.28.16-.39.51-.37.69,0,.07-.21.33-.44.57l-.27.36-.29.32c-.06.05-.13.09-.18.12,0,0,0,0,0,0-.02-.04-.05-.06-.09-.07-.02,0-.08,0-.15.04-.08.06-.12.16-.14.31-.01.1-.02.13-.02.12-.02.04-.09.21,0,.56.02.08.07.24.21.23.12-.01.15-.16.16-.24.13-.44.36-.57.59-.59.11-.05.24-.1.38-.12.47-.09.94-.17,1.02-.23.03-.02.08-.11.09-.2,0-.07-.01-.12-.05-.16-.1-.11-.26-.23-.39-.22-.08,0-.14.06-.2.15-.04.06-.05.12-.04.15,0,.02.03.04.07.05.08.02.17.02.23,0-.02-.01-.04-.03-.06-.04h0c-.06-.03-.08-.1-.06-.16.03-.06.1-.09.16-.06.03.01.19.09.22.24.01.07,0,.13-.05.18-.14.14-.49.07-.49.07-.11-.02-.2-.1-.24-.19-.03-.08-.05-.21.06-.38.13-.2.28-.26.39-.26.27-.02.5.2.59.3.09.1.12.22.11.35-.01.14-.09.3-.19.37-.12.09-.44.15-1.1.27,0,0,0,0-.01,0,.08.09.13.22.19.39.02.06,0,.15-.06.25-.12.21-.35.39-.48.42-.12.02-.26.07-.3.18-.02.06,0,.12.02.15.01.01.02.02.04.03,0,0,.01,0,.02.01.28.14.68,0,.95-.08.06-.02.13-.04.15-.05.22-.02.28-.33.29-.39,0-.04,0-.07-.03-.1-.02-.03-.06-.04-.1-.04,0,0,0,0-.01,0,.06-.05.17-.13.25-.16.06-.02.13.05.13.05.03.03.08.05.12.03,0,0,.26-.08.54-.13.22-.04.35-.21.4-.31.06-.1.1-.26.06-.36Zm-2.93-.42h0s0,0,0,0Z"/>
          <path class="cls-1" d="m97.1,95.14c-.07,0-.15-.01-.23,0-.16.08-.29.19-.37.31-.07.11-.09.23-.06.33.06.18.16.32.29.39,0,0,0,0,0,0,.1.05.21.05.31,0,.12-.05.25-.19.3-.33.04-.11.02-.19-.01-.23-.04-.07-.1-.17-.21-.19-.11-.02-.19.06-.25.11-.05.05-.05.13,0,.17.05.05.13.05.17,0,.02-.02.03-.03.04-.03,0,.01.02.03.04.06,0,.05-.1.18-.16.21-.04.02-.08.02-.12,0-.07-.03-.14-.13-.17-.24,0-.02,0-.07.03-.13.09-.15.3-.26.58-.32-.05-.06-.12-.1-.2-.11Z"/>
        </g>
        <path class="cls-1" d="m98.57,72.95c-.24,0-.48.05-.69.13.81.3,1.39,1.11,1.39,2.06s-.58,1.76-1.39,2.06c.22.08.45.13.69.13,1.15,0,2.08-.98,2.08-2.19s-.93-2.19-2.08-2.19Z"/>
        <path class="cls-1" d="m86.78,99.33l-3.1-5.31c.64-.1,1.37.17,1.95.76.03.03.07.05.11.05.01,0,.03,0,.04,0,.05,0,.1-.04.13-.09.39-.82.3-1.9-.24-2.83-.54-.93-1.44-1.54-2.34-1.6-.06-.01-.11.02-.14.06-.04.04-.05.1-.03.15.22.79.1,1.56-.3,2.07l-.44-.75c-.05-.09-.17-.12-.27-.07l-.7.41s-.08.07-.09.12c-.01.05,0,.1.02.15l.42.72c-.11.01-.21.02-.31.01-.06,0-.11.02-.14.06-.04.04-.05.1-.03.15.08.3.2.58.36.84.15.26.34.51.56.73.03.03.07.05.11.05.01,0,.03,0,.04,0,.05,0,.1-.04.13-.09.05-.09.1-.18.16-.27l3.08,5.29s.07.08.12.09c.01,0,.03,0,.04,0,.04,0,.08,0,.11-.03l.7-.41c.09-.05.12-.17.07-.27Z"/>
        <path class="cls-1" d="m73.21,78.06c.15-.26.35-.5.6-.68-.65-1.25-.35-3.02-.35-3.02,0,0-.76,1.04-.64,2.16,0,0-.48-.42-.59-1.27-.17.31-.39,1.11,0,2.05,0,0-.57-.27-.78-.99-.1.41-.02,1.16.46,1.88,0,0-.42-.1-.73-.47,0,0,.04.65.74,1.45,0,0-.31-.02-.61-.26,0,0,0,.01,0,.02.57,1.29,1.84,2.13,3.24,2.17-.75-.17-1.38-.75-1.57-1.55,0,0-.09-.53-.03-.85.05-.28.23-.63.23-.63Z"/>
        <path class="cls-1" d="m77.09,83.56c-.03-.08-.12-.12-.19-.09-.08.03-.11.11-.08.19,0,0,.01.05-.03.11-.06.1-.26.28-.91.42h-.07s0-.1,0-.15l-.3-2.21c-.05-.25-.3-.42-.56-.36l-1.8.38c-.25.05-.42.3-.36.56l.57,2.13c.01.06.04.11.07.16h-.03c-.65.14-.91.05-1-.01-.06-.04-.07-.08-.07-.09,0-.08-.07-.14-.15-.14-.08,0-.15.07-.14.15,0,.02.01.17.17.3.23.18.66.21,1.26.08l.45-.09.78-.16.74-.16h0s.49-.1.49-.1c.6-.13.98-.32,1.12-.58.1-.18.04-.32.04-.34Z"/>
        <path class="cls-1" d="m73.39,95.24l-.38-8.84c-.01-.33-.28-.59-.63-.57-.33.01-.59.29-.57.63l.38,8.84-.72-.23c.55.58,1.09,1.53,1.41,2.31.26-.8.71-1.79,1.21-2.42l-.7.29Z"/>
        <path class="cls-1" d="m74.26,99.95h-.61s-.02-.35-.02-.35c-.02-.33-.3-.59-.63-.57-.33.02-.59.3-.57.63l.02.3h-.66c-.33,0-.6.28-.6.61,0,.31.24.56.54.59.02,0,.04,0,.06,0h.72s.03.49.03.49c.02.3.25.54.54.57.03,0,.06,0,.09,0,.33-.02.59-.3.57-.63l-.02-.44h.55c.33,0,.6-.28.6-.61s-.27-.6-.6-.6Z"/>
        <path class="cls-1" d="m61.12,73.9c-.3,0-.57-.22-.62-.53l-.67-4.46c-.05-.34.18-.66.53-.71.35-.04.66.18.71.53l.67,4.46c.05.34-.18.66-.53.71-.03,0-.06,0-.09,0Z"/>
      </g>
      <g>
        <path class="cls-1" d="m44.83,54.33l-.1-2.57s0-.01,0-.02c0,0,0,0,0,0,0,0,0,0,0-.01,0,0,0,0,0,0,0,0,0,0,0-.01,0,0,0,0,0,0,0,0,0,0,0-.01,0,0,0,0,0,0,0,0,0,0,0-.01,0,0,0,0,0,0,0,0,0,0,0-.01,0,0,0,0,0,0,0,0,0-.01,0-.02,0,0,0,0,0,0,0,0,0,0,0-.01,0,0,0,0,0,0,0,0,0,0,0-.01,0,0,0,0,0,0,0,0,0,0,0,0,0,0,0,0,0,0,0,0,0,0,0,0,0,0,0,0,0,0,0,0,0,0-.01,0,0,0,0,0,0,0,0,0,0,0-.01,0,0,0,0,0,0,0,0,0-.01,0-.02-.01-.01,0-.02-.01-.03-.02,0,0,0,0,0,0,0,0,0,0,0,0l-2.32-.93c-.08-.03-.16-.03-.24.01l-2.23,1.12s0,0,0,0c0,0,0,0,0,0,0,0-.02.01-.03.02,0,0-.01,0-.02.01h0s0,.01-.01.01c0,0,0,0,0,0,0,0,0,0,0,0h0s0,.01,0,.02c0,0,0,0,0,0,0,0,0,0,0,0,0,0,0,0,0,0,0,0,0,0,0,.01,0,0,0,0,0,0,0,0,0,0,0,.01,0,0,0,0,0,0,0,0,0,.01,0,.02,0,0,0,0,0,0,0,0,0,0,0,.01,0,0,0,0,0,0,0,0,0,0,0,.01,0,0,0,0,0,0,0,0,0,0,0,.01,0,0,0,0,0,0,0,0,0,0,0,.01,0,0,0,0,0,0h0s0,.02,0,.02v.02l.1,2.57c0,.11.07.2.16.25l2.33,1.16s0,0,.01,0c0,0,0,0,.01,0,0,0,.01,0,.02,0,0,0,0,0,.01,0,0,0,.02,0,.02,0,0,0,0,0,.01,0,.01,0,.02,0,.03,0,0,0,.01,0,.02,0h0s0,0,.01,0c0,0,0,0,0,0,0,0,0,0,.01,0,0,0,0,0,0,0,0,0,0,0,.01,0,0,0,0,0,0,0,0,0,0,0,.01,0,0,0,0,0,0,0,0,0,0,0,.01,0,0,0,0,0,0,0,0,0,0,0,.01,0,0,0,0,0,0,0,0,0,0,0,0,0l2.23-1.34c.09-.05.14-.16.14-.26"/>
        <path class="cls-1" d="m51.74,16.62c-.61-.53-1.45-.87-2.37-.96-.92-.09-1.81.07-2.51.47-.73.41-1.17,1.02-1.24,1.71,0,.09-.01.18,0,.27-.02.03-.03.06-.03.1l-.07.65c-.07.69.24,1.38.87,1.93.61.53,1.45.87,2.37.96.17.02.33.03.5.03.74,0,1.44-.17,2.01-.49.73-.41,1.17-1.02,1.24-1.71l.07-.65s0-.07,0-.1c.02-.09.04-.18.05-.27h0c.07-.69-.24-1.38-.87-1.93m-3.81,1.23s.13-.9,1.11-.9c.19,0,.41.03.67.11,1.6.49.62,1.57.62,1.57,0,0-.66.34-.5.55l.16.22-2.12-.21.17-.35-.2-.33.17-.15-.34-.08.26-.42Z"/>
        <path class="cls-1" d="m19.05,25.22c-.1,0-.2-.06-.26-.15-.07-.13-.03-.28.08-.37l3.62-2.77-1.53-.98c-.09-.06-.14-.17-.13-.28.01-.11.09-.2.19-.24l7.03-2.58c.13-.05.29,0,.35.13.07.13.04.28-.08.37l-3.66,2.81,1.92.93c.11.05.17.16.16.28,0,.12-.09.22-.2.26l-7.42,2.57s-.06.02-.1.02"/>
        <path class="cls-1" d="m23.37,44.39c-.07,0-.14-.03-.2-.08l-.86-.78c-.12-.11-.13-.29-.02-.41l2.08-2.29-2.29-2.08c-.06-.05-.09-.12-.1-.2,0-.08.02-.15.08-.21l.78-.86c.11-.12.29-.13.41-.02l2.29,2.08,2.07-2.29c.11-.12.29-.13.41-.02l.86.78c.06.05.09.12.1.2,0,.08-.02.15-.08.21l-2.08,2.29,2.29,2.08c.06.05.09.12.1.2s-.02.15-.08.21l-.78.86c-.11.12-.29.13-.41.02l-2.29-2.08-2.08,2.29c-.05.06-.12.09-.2.1h-.01"/>
        <path class="cls-1" d="m47.49,26.86c-.1,0-.19-.04-.25-.12l-.67-.95s-.02-.02-.02-.04l-1.26-1.79c-.04-.06-.06-.14-.05-.22.01-.08.06-.14.12-.19l.95-.67c.13-.09.31-.06.41.07l1.12,1.59,5.3-3.72c.06-.04.14-.06.22-.05.08.01.14.06.19.12l.67.95c.09.13.06.31-.07.41l-6.49,4.56s-.1.05-.15.05"/>
        <path class="cls-1" d="m40.05,14.03c-.05-.09-.15-.15-.25-.15-.17,0-.58-.03-.91-.15.07-.09.14-.2.22-.31.43-.63.49-.9.49-1.05,0-.11-.05-.21-.14-.26-.09-.06-.2-.06-.3,0-.01,0-1.03.58-1.91.72-.04,0-.09.02-.12.02l-.16-.76c-.03-.13-.14-.23-.28-.23-1.38-.02-2.41.34-3.09.69.02-.11.01-.22-.01-.33-.11-.54-.64-.88-1.17-.77-.54.11-.89.64-.77,1.18.06.28.22.5.45.64l.11.55.4,1.94,1.19,5.79c.03.14.15.23.28.23.02,0,.04,0,.06,0l.78-.16c.08-.02.14-.06.18-.13.04-.06.06-.14.04-.22l-1.23-5.99c.69-.35,1.57-.52,2.24-.6l.18.65s0,.02,0,.02c0,0,0,0,0,0,0,0,0,.01,0,.02,0,0,0,0,0,0,0,0,0,0,0,.01,0,0,0,0,0,0,0,0,0,0,.01.01,0,0,0,0,0,0,0,0,.01.01.02.02h0s0,.02.01.02c0,0,0,0,0,0,0,0,0,0,.01.01,0,0,0,0,0,0,0,0,.02.01.02.01h0s.01,0,.02.01c0,0,0,0,0,0,0,0,.01,0,.02,0,0,0,0,0,0,0,0,0,.01,0,.02,0h0s.01,0,.02,0c0,0,0,0,0,0,0,0,.02,0,.02,0s.02,0,.02,0c.02,0,.12,0,.27,0,.7,0,2.54-.11,3.19-1.23.05-.09.05-.2,0-.29"/>
        <path class="cls-1" d="m34.1,45.21c-.09,0-.18-.04-.23-.12-.01-.02-.29-.39-.52-.89-.33-.71-.39-1.31-.18-1.79.28-.65.87-.8,1.33-.67.31.09.6.34.73.68.34-.13.71-.08.99.09.4.25.68.79.38,1.43-.21.47-.7.83-1.45,1.06-.53.16-.99.2-1.01.2,0,0-.02,0-.02,0"/>
        <path class="cls-1" d="m32.09,19.19c-.49-.48-.38-1.57-.29-1.94l.17.02s.02,0,.03,0c.07,0,.14-.02.19-.07.06-.05.1-.12.11-.21l.08-.82c.02-.17-.11-.32-.27-.33l-.33-.03.21-.89c.02-.08,0-.17-.05-.24-.05-.07-.12-.11-.21-.12l-1.23-.12c-.08,0-.17.02-.23.08-.06.06-.1.14-.09.22l.03.92-.33-.03c-.08,0-.16.02-.22.07-.06.05-.1.12-.11.21l-.08.82c0,.08.02.16.07.22.05.06.13.1.21.11l.17.02c0,.39-.1,1.47-.68,1.85-1.11.72-1.67,1.65-1.51,2.5.14.75.82,1.3,1.87,1.52.01,0,.02,0,.03,0l1.27.13s.02,0,.03,0h0c1.07,0,1.85-.41,2.14-1.12.32-.8-.04-1.82-.98-2.75"/>
        <path class="cls-1" d="m21.59,19.04c0-.09-.05-.17-.13-.22-.03-.02-.65-.42-1.46-.22-.67.16-1.25.68-1.72,1.53-1,1.8-1.52,4.04-1.69,4.93l-.31-.15c-.14-.07-.32,0-.39.13l-.4.83s-.03.08-.03.12c-.19.03-.35.1-.5.19-.33.21-.45.52-.52.71-.01.03-.02.06-.03.08-.16.33-.06.75.29,1.24.12.17.25.32.35.43-.13.09-.24.22-.31.37-.24.49-.03,1.08.46,1.31.14.06.28.1.43.1.11,0,.22-.02.33-.06.25-.09.45-.26.56-.5.11-.24.13-.5.04-.75-.04-.12-.1-.23-.18-.32l.85-1.76.46.22s.08.03.13.03c.11,0,.21-.06.26-.17l.4-.83c.03-.07.04-.15.01-.22-.03-.07-.08-.13-.15-.17l-.5-.24c.26-.5.86-1.66,1.51-2.84,1.5-2.74,1.99-3.39,2.15-3.53.07-.06.1-.15.1-.24m-5.72,9.45c-.06-.02-.13-.03-.19-.03-.07-1.02.55-1.58.81-1.78l.2.1-.82,1.71Z"/>
        <path class="cls-1" d="m29.27,41.93c-.07,0-.13-.02-.18-.07l-.83-.68c-.07-.06-.11-.15-.11-.24,0-.09.05-.18.13-.23l.6-.39c-.02-.21.04-.43.18-.6s.34-.28.56-.3c.22-.02.44.04.61.18.35.29.4.81.11,1.17-.14.17-.34.27-.55.3l-.26.67c-.03.09-.11.15-.2.18-.02,0-.05,0-.07,0"/>
        <path class="cls-1" d="m29.69,13.01c-.2-.34-.54-.52-.97-.52h-.02c-.32,0-.62.1-.81.19-.56.28-.58.93-.51,1.22.03.12.13.21.26.21s.23-.09.26-.21c0-.02.02-.08.13-.12.1-.04.21-.03.28,0-.11.23-.59.76-1.47,1.36-.4.27-.85.43-1.21.51.5-.43,1.09-.62,1.1-.63.12-.04.19-.15.19-.27,0-.12-.1-.22-.22-.24-.07-.01-.11-.03-.13-.04.04-.1.21-.29.38-.42.09-.07.13-.18.09-.29-.03-.11-.13-.18-.24-.19-.09,0-.13-.02-.14-.03,0-.03.01-.15.14-.37.1-.18.22-.32.22-.32.07-.09.08-.21.03-.31-.06-.1-.17-.15-.28-.13-2.24.38-3.04,1.86-3.07,1.92-.04.07-.04.15-.01.22.03.07.09.13.16.15.25.09.4.2.44.34.05.17-.04.42-.26.71-.83-.25-1.22-.96-1.23-.96,0,0,0,0,0-.01l-.33-.54c-.05-.09-.15-.13-.25-.13-.1,0-.19.07-.23.17l-.26.66c-.23.18-.7.61-.92.81-.05.05-.08.11-.08.18l-.02.4c-.05.08-.14.24-.22.4-.25.48-.27.64-.23.77.1.3.5.25.67.23.19-.02.37-.07.38-.07.05-.01.09-.03.12-.06,0,0,.17-.16.38-.32.35-.26.48-.28.5-.28.08.01.12.06.26.25.08.11.18.24.32.39l-.16,1.39c-.01.12.06.24.17.28.03.01.06.02.1.02.08,0,.17-.04.22-.11l.83-1.16c.7-.07,1.6-.43,2.27-.7.12-.05.24-.1.34-.14.07-.03.14-.06.2-.08l1.07.13s.02,0,.03,0c.1,0,.19-.05.23-.14.05-.09.04-.21-.03-.3l-.28-.36c.33-.3.66-.66,1.08-1.14.51-.58.76-.95.87-1.29.14-.45,0-.79-.17-1.06"/>
        <path class="cls-1" d="m38.9,48.02c-.11-.09-.24-.13-.38-.11-.14.01-.26.08-.35.19s-.13.25-.11.38c.01.14.08.26.19.35.09.08.21.12.33.12.02,0,.04,0,.06,0,.14-.02.26-.08.35-.19.09-.11.13-.24.11-.38-.02-.14-.08-.26-.19-.35m-.28.44s-.02.02-.04.02-.03,0-.04-.01c-.01-.01-.02-.02-.02-.04,0-.02,0-.03.01-.04,0-.01.02-.02.04-.02.02,0,.03,0,.04.01.01.01.02.03.02.04,0,.02,0,.03-.01.04"/>
        <path class="cls-1" d="m42.85,47.24c-.13-1.13-.76-1.71-1.27-2-.54-.31-1.06-.35-1.08-.35-.13-.01-.26.07-.3.2-.04.13.01.27.13.34.72.42,1.11.86,1.13,1.28,0,.11-.01.21-.05.31-.03-.14-.17-.24-.31-.22-.13.01-.23.11-.26.24-.25-.4-.52-.78-.84-1.1-.3-.29-.6-.48-.93-.59-.02-.03-.04-.06-.07-.08-.06-.05-.14-.07-.21-.06l-.57.06-.53.05c-.11.01-.2.09-.24.18-.29.16-.54.4-.76.72-.27.38-.46.84-.64,1.29-.06-.1-.17-.16-.29-.15-.14.02-.25.13-.26.27-.05-.08-.09-.18-.1-.28-.06-.41.23-.92.84-1.48.1-.09.12-.24.06-.36-.07-.12-.21-.17-.34-.14-.02,0-.52.16-.98.57-.44.39-.93,1.09-.82,2.22.07.69.43,1.01.72,1.17.28.15.59.19.83.2l.03.26c.02.15.14.26.29.26.01,0,.02,0,.03,0,.16-.02.28-.16.26-.32v-.06s1.2-.13,1.2-.13c.03.03.06.06.1.08.09.07.18.13.27.18l.17,1.58c0,.08.05.15.11.2.05.04.12.06.18.06.01,0,.02,0,.03,0l1.09-.12c.16-.02.28-.16.26-.32l-.17-1.58c.08-.07.16-.14.23-.23.03-.03.05-.07.08-.1l1.2-.13v.06c.02.15.15.26.3.26.01,0,.02,0,.03,0,.16-.02.27-.16.26-.32l-.03-.26c.24-.06.53-.16.78-.37.25-.21.53-.61.46-1.29"/>
        <path class="cls-1" d="m46.61,14.6l-.68-.44c-.14-.09-.33-.05-.42.09l-.02.03c-.5-.25-.99-.25-1.47,0-.02-.06-.04-.13-.05-.21-.14-.85-.29-1.73-1.37-2.05-.49-.15-1.02-.03-1.44.31-.48.38-.73.97-.68,1.58.04.51.3.91.76,1.15.32.17.62.19.65.19.12,0,.24-.06.29-.18.05-.11.02-.25-.07-.33,0,0-.2-.18-.32-.44-.22-.43-.04-.67.02-.75.16-.21.3-.3.43-.26.28.08.58.62.65,1.16.04.32.16.61.36.86-.11.63.09,1.14.58,1.55l-.04.07c-.04.07-.06.15-.04.23.02.08.06.15.13.19l.68.44c.05.03.11.05.17.05.1,0,.2-.05.26-.14l1.73-2.69c.09-.14.05-.33-.09-.42"/>
        <path class="cls-1" d="m35.26,22.97h0c-.54,0-1.96.07-3.59.74-.94.38-1.8.9-2.56,1.55-.92.78-1.7,1.74-2.32,2.87-.34.62-.64,1.31-.9,2.06l-.19-.34-.29-.5-.5.29-.39.22-.5.29.29.5,1.34,2.33.31.54.52-.35,2.23-1.51.48-.33-.33-.48-.25-.37-.33-.48-.48.33-.15.1c.35-.96.8-1.81,1.34-2.54.66-.89,1.47-1.61,2.39-2.14.71-.41,1.48-.7,2.3-.87.68-.14,1.22-.16,1.48-.16.11,0,.17,0,.18,0h0s.04,0,.05,0c.46,0,.84-.36.87-.82.03-.48-.34-.89-.82-.92-.03,0-.1,0-.2,0"/>
        <path class="cls-1" d="m42.59,28.82c-.14,0-.3,0-.45-.03-.66-.08-1.25-.53-1.58-1.21-.27-.56-.3-1.13-.06-1.52.22-.37.09-.99.09-1,0-.04,0-.08,0-.12.13-.62.41-.79.71-.92.18-.08.27-.12.33-.48.02-.11.1-.2.2-.23.1-.03.22,0,.3.07.02.02.16.16.25.37.15.33.11.65-.13.88-.02.02-.04.05-.03.11.02.05.06.09.08.1.3-.33.58-.8.15-1.51-.57-.95-.44-1.3-.18-1.84.01-.03.03-.05.04-.08.06-.12.2-.19.33-.16.13.03.23.15.22.29,0,.03,0,.82.69,1.16.47.23.74.76.8,1.59.04.46,0,.88-.02,1.03,0,.02.01.04.02.06.03-.07.06-.15.08-.22.03-.09.09-.16.18-.19.09-.03.19-.02.26.03.11.07.61.51.19,1.96-.2.69-.6,1.22-1.16,1.53-.38.21-.84.32-1.33.32"/>
        <path class="cls-1" d="m44.52,22.81s-.1-.01-.14-.04c0,0,0,0-.02,0-.17-.1-1.32-.8-1.44-1.63-.05-.3.05-.59.27-.83.48-.53.57-1.02.26-1.46-.09-.12-.07-.28.04-.38s.27-.1.38-.01c.11.09,1.11.94,1.17,1.74.02.26-.07.49-.24.68-.34.36-.49.69-.45.96.04.26.27.41.31.43,0,0,0,0,.01,0,.14.08.19.26.11.39-.05.1-.15.15-.25.15"/>
        <path class="cls-1" d="m44.53,47.27c.12,0,.23-.02.35-.07.46-.19.68-.72.49-1.18-.09-.22-.27-.4-.49-.49-.22-.09-.47-.09-.69,0-.22.09-.4.27-.49.49-.09.22-.09.47,0,.69.14.35.48.56.84.56"/>
        <path class="cls-1" d="m46.13,45.64c.08.03.16.05.25.05s.17-.02.25-.05c.33-.14.48-.51.35-.84s-.51-.48-.84-.35c-.33.14-.48.51-.35.84.07.16.19.28.35.35"/>
        <path class="cls-1" d="m54.66,45.63c-.08-.18-.26-.29-.56-.3-.19-.01-.44.01-.75.06-.57.1-1.34.31-2.23.6-.05-.05-.1-.09-.16-.14.13-.41.24-.79.33-1.14.14-.56.23-1.01.26-1.34.01-.19.05-.71-.3-.85-.19-.08-.39-.02-.6.18-.13.12-.28.31-.46.57-.29.43-.64,1.05-1.06,1.87-.48-.03-.96.05-1.41.24-.78.32-1.39.93-1.72,1.72-.15.36-.23.74-.24,1.12-.82.42-1.51.81-1.98,1.14-.47.33-.93.72-.77,1.11.11.26.42.31.65.31.08,0,.15,0,.2,0,.34-.03.79-.11,1.34-.26.36-.09.75-.21,1.16-.34.13.17.27.34.43.48-.27.82-.42,1.5-.46,2.02-.02.23-.07.92.37,1.1.06.02.11.03.17.03.28,0,.51-.26.6-.36.2-.22.42-.55.68-1,.16-.28.34-.61.52-.97.09,0,.18.01.27.01.41,0,.82-.08,1.22-.24,1.38-.57,2.15-2.02,1.92-3.44.39-.2.74-.39,1.06-.58.49-.29.87-.55,1.13-.77.15-.13.54-.46.39-.81m-4.09-1.87c.19-.3.32-.47.41-.57,0,.23-.06.7-.32,1.63-.06.22-.13.45-.2.69-.1-.05-.2-.1-.31-.14-.13-.06-.27-.1-.41-.14.31-.61.59-1.1.82-1.47m-5.25,6.1c-.94.26-1.41.32-1.64.32.23-.23.83-.67,2.13-1.34.04.23.11.46.2.68.02.04.04.08.05.12-.26.08-.51.16-.75.22m2.46,2.05c-.46.84-.73,1.14-.85,1.24-.05-.22-.04-.86.36-2.15.14.09.29.16.44.22.11.05.23.09.34.12-.1.2-.2.39-.3.56m4.83-5.07c-.21.12-.44.25-.68.37-.02-.04-.03-.09-.05-.13-.09-.22-.21-.43-.34-.62,1.4-.45,2.13-.56,2.45-.56-.16.16-.53.46-1.38.94"/>
        <path class="cls-1" d="m45.37,40.94c-.42-1.16-1.71-1.77-2.88-1.35-1.07.39-1.67,1.51-1.43,2.6l-.21.08s-.01,0-.02,0l-.1-.26c-.05-.15-.22-.23-.37-.17l-3.04,1.1c-.15.05-.23.22-.17.37l.39,1.07c.03.07.08.13.15.16.04.02.08.03.12.03.03,0,.07,0,.1-.02l3.04-1.1c.15-.05.23-.22.17-.37l-.1-.26s.01,0,.02,0l.21-.08c.23.44.59.79,1.04,1,.3.14.63.21.95.21.26,0,.52-.05.77-.14.56-.2,1.01-.62,1.27-1.16.25-.54.28-1.15.08-1.72"/>
        <path class="cls-1" d="m20.92,28.84c0-.08-.04-.15-.1-.2-.05-.05-.12-.07-.19-.07,0,0-.02,0-.02,0-.08,0-.15.04-.2.1-.05.06-.08.14-.07.22.01.16.16.29.32.28.08,0,.15-.04.2-.1s.08-.14.07-.22Z"/>
        <path class="cls-1" d="m23.49,28.65l-.03-.41c0-.08-.04-.15-.1-.2-.06-.05-.14-.08-.21-.07l-.49.04c-.02-.05-.05-.11-.07-.16l.35-.35c.11-.11.11-.3,0-.41l-.28-.28c-.23-.23-.49-.41-.78-.55l-.36-.17c-.14-.07-.32,0-.39.14l-.21.45c-.05,0-.11-.01-.17-.02l-.13-.48c-.02-.07-.07-.14-.14-.18-.07-.04-.15-.05-.22-.03l-.39.1c-.31.08-.61.22-.87.4l-.33.23c-.06.04-.11.11-.12.19-.01.08,0,.15.05.22l.28.41s-.06.09-.1.13l-.48-.13c-.08-.02-.15,0-.22.03-.07.04-.11.1-.13.18l-.1.39c-.08.31-.11.63-.09.95h0s.03.4.03.4c0,.08.04.15.1.2.06.05.14.08.21.07l.49-.04c.02.05.05.1.07.16l-.35.35c-.05.05-.09.13-.09.21s.03.15.09.21l.28.28c.23.23.49.41.78.55l.36.17c.14.07.32.01.39-.13l.22-.45c.05,0,.11.01.16.02l.13.48c.03.13.15.22.28.22.02,0,.05,0,.08-.01l.39-.1c.31-.08.61-.22.87-.4l.33-.22c.06-.04.11-.11.12-.19.02-.08,0-.15-.04-.22l-.28-.41s.07-.09.1-.13l.48.13c.08.02.15.01.22-.03.07-.04.12-.1.14-.18l.1-.39c.08-.31.11-.63.09-.96"/>
        <path class="cls-1" d="m26.49,26.54c-.02-.07-.08-.13-.15-.17l-.36-.18c-.02-.23-.1-.45-.22-.65l.18-.36c.03-.07.04-.15.01-.22-.02-.07-.08-.13-.15-.17l-.87-.43c-.14-.07-.32-.01-.39.13l-.18.36c-.23.02-.45.1-.65.22l-.36-.18c-.14-.07-.32-.01-.39.13l-.43.87c-.03.07-.04.15-.02.22.03.07.08.13.15.17l.36.18c.02.23.1.45.22.65l-.18.36c-.03.07-.04.15-.02.22.02.07.08.13.15.17l.87.43s.09.03.13.03c.03,0,.06,0,.09-.01.07-.03.13-.08.17-.15l.18-.36c.23-.02.45-.1.65-.22l.36.18c.07.03.15.04.22.02.07-.03.13-.08.17-.15l.43-.87c.03-.07.04-.15.02-.22"/>
        <path class="cls-1" d="m21.06,38.45s.02,0,.03,0c.3,0,.57-.15.76-.41.18-.24.28-.54.27-.86,0-.24-.07-.46-.18-.65h.03c.55-.02.99-.48.97-1.03h0c.07.02.14.05.22.06.04,0,.07.01.11.02,0,.03,0,.05,0,.08,0,.23.08.46.22.67.15.2.34.35.56.43.09.03.18.05.27.05h0c.07.27.42.51.93.63.17.04.33.06.47.06.29,0,.52-.08.64-.22h0s.03,0,.05,0c.05.09.15.15.25.15.03,0,.06,0,.1-.02l1.32-.47c.15-.05.23-.22.18-.37-.04-.1-.12-.17-.22-.19,0,0,0-.01.01-.02.03.03.07.05.12.06.02,0,.04,0,.06,0,.13,0,.25-.09.28-.23l.29-1.35c.03-.16-.07-.31-.22-.34-.05-.01-.1,0-.14,0-.1-.53-.31-.92-.32-.95-.05-.1-.16-.16-.27-.15-.11,0-.21.08-.25.18-.6,1.52-1.05,1.67-1.21,1.67-.42-.01-.85-.9-.99-1.33,0-.01,0-.02-.01-.03-.01-.03-.31-.66-.96-1.13-1.1-.81-2.29-.53-3.09-.15-1.04.49-1.96,1.38-2.65,2.58-.52.9-.73,1.65-.74,1.68,0,0-1.36,3.79,3.11,1.59"/>
        <path class="cls-1" d="m27.53,25.3s-.08,0-.12,0c-.67-.07-1.15-.67-1.09-1.33s.67-1.15,1.33-1.09,1.16.67,1.09,1.33c-.06.63-.59,1.09-1.21,1.09"/>
        <path class="cls-1" d="m27.78,47.39l-.09-1.45c0-.15-.13-.27-.28-.27h-.62s.04-1.63.04-1.63c0-.17-.13-.31-.3-.32l-1.42-.04c-.17,0-.31.13-.32.3l-.05,1.63h-.14s-.03,0-.05,0l-2.26.3c-.15.02-.26.14-.25.29v1c.02.13.1.24.22.27.12.04.25,0,.32-.11l.28-.4,1.41.12v.13s-1.04.3-1.04.3c-.14.04-.23.18-.21.32l.18,1.29c.02.14.13.24.27.25h.02c.13,0,.24-.09.28-.21l.19-.67.35-.06.02.7-1.75,1.66-.7-.35c-.12-.06-.27-.03-.35.07-.09.1-.09.25-.01.36l.83,1.14c.09.12.26.16.39.07l2.63-1.71.84,2.28-.72.22c-.14.04-.23.18-.2.32.02.14.14.25.29.25h1.59c.08-.01.16-.04.21-.1.05-.06.08-.13.08-.21l-.14-3.62.45-2.05s0-.05,0-.08m-5.11,4.05h0s.02-.01.03-.01h-.02Z"/>
        <path class="cls-1" d="m46.85,43.87c-.24,0-.52-.04-.81-.16-.08-.03-.14-.1-.17-.19-.32-1.04.28-1.8.31-1.83.01-.01.02-.02.03-.03l.88-.79c.12-.11.3-.1.41.02l1.33,1.47c.11.12.1.3-.02.41l-.88.8s-.02.02-.04.03c-.02.02-.45.28-1.05.28"/>
        <path class="cls-1" d="m29.14,50.66s-.06,0-.09-.02c-.15-.05-.23-.22-.18-.37l.47-1.38-.81-2.07c-.03-.06-.03-.13,0-.2l.41-1.2c.03-.1.12-.17.23-.19.07-.01.14,0,.2.04l-.03-.52s0-.08.02-.12c.04-.09.89-2.32,2.58-3.04,0,0,.01,0,.02,0,.06-.02.13-.02.19,0h0s.01,0,.02,0h0c.05.02.1.06.13.12,1.13,1.79-.28,5.18-.34,5.32,0,.01-.01.03-.02.04l-.82,1.34s-.06.08-.11.1l-1.13.64-.45,1.31c-.04.12-.16.2-.28.2"/>
        <path class="cls-1" d="m38.75,54.14s-.06-.01-.1-.01c-.09,0-.22.02-.33.06.04-.06.09-.12.12-.18h.01c.15,0,.29-.02.38-.04.2-.05.32-.26.27-.46-.04-.17-.2-.28-.36-.28-.03,0-.06,0-.1.01-.02,0-.05.02-.07.03,0-.05,0-.11,0-.17-.03-.2-.13-.35-.23-.35,0,0,0,0-.01,0-.11.01-.18.19-.15.4,0,.07.03.13.05.18-.05.03-.1.07-.13.13-.08.16-.18.32-.29.46.01-.07.02-.13.02-.17.02-.21-.14-.39-.35-.4-.01,0-.02,0-.03,0-.2,0-.36.15-.38.35-.01.13.08.5.2.75-.15.11-.31.22-.49.31.07-.25.12-.51.13-.6.01-.21-.15-.39-.35-.4,0,0-.02,0-.02,0-.2,0-.36.15-.38.35,0,.13.03.57.11.88-.16.06-.32.12-.49.17-.02-.05-.04-.09-.08-.12l-.53-.46c.68-.39,1.16-.94,1.3-1.55l.21-.29.63-.03c.1,0,.18-.06.24-.14.05-.08.06-.18.02-.27l-.37-.82c-.07-.4-.29-.65-.47-.78-.26-.19-.59-.28-.87-.23-.13.02-.37.08-.57.24-.12.09-.21.2-.27.32l-1.17-2.09c-.04-.07-.11-.12-.19-.14-.08-.02-.16,0-.23.04-.01.01-.33.24-.56.63-.12.21-.23.48-.23.82l-1.17-.94c-.06-.05-.14-.07-.21-.06-.08,0-.15.05-.19.11-.76.96-.62,2.37.29,3.29l-.23.12h-.02s-.04,0-.07.01l-1-.65c-.06-.04-.13-.05-.2-.04-.55.07-1.05.25-1.42.5-.43.29-.64.65-.59,1.02.05.37.34.66.83.83.28.1.62.15.98.15.17,0,.34-.01.52-.03.07,0,.13-.04.18-.09l.64-.71c.13.37.33.67.6.9.37.31.86.47,1.46.47.14,0,.28,0,.43-.03l.16.35c-.88.03-1.52-.04-1.53-.04-.16-.02-.3.1-.32.26-.02.16.1.3.26.32.03,0,.47.05,1.12.05.46,0,1.02-.02,1.61-.11.61-.09,1.15-.22,1.64-.4.02.18.12.42.19.53.07.12.2.19.33.19.06,0,.13-.02.19-.05.18-.1.24-.33.14-.51-.06-.1-.24-.25-.42-.33.05-.02.09-.04.14-.07.19-.1.38-.2.54-.32-.04.2.22.62.33.76.07.09.18.14.29.14.08,0,.17-.03.24-.08.16-.13.07-.31-.06-.47-.11-.14-.46-.43-.66-.45.13-.1.25-.2.37-.32.11.13.41.22.56.26.04.01.07.02.11.02.16,0,.31-.1.36-.27.06-.2-.05-.41-.25-.47m-4.1,1.25c-.15.02-.3.04-.44.05,0,0,0,0,0-.01l-.18-.41c.2-.05.38-.11.56-.18l.54.46c-.15.03-.31.06-.47.08"/>
        <path class="cls-1" d="m19.13,32.16c-.05-.12-.16-.2-.29-.19l-1.75.12-.53-1.29c-.05-.11-.16-.18-.28-.18-.12,0-.23.08-.27.2l-.46,1.37-1.77.12c-.13,0-.24.1-.27.23-.03.13.03.26.14.32l1.4.77-.56,1.65c-.04.12,0,.25.11.33.05.04.11.05.17.05s.12-.02.18-.06l.69-.53.16,5.38c0,.16.13.28.29.28h0l.8-.02c.08,0,.15-.03.2-.09.05-.06.08-.13.08-.21l-.17-5.72.74.4c.11.06.24.04.33-.04.09-.08.12-.21.08-.33l-.49-1.21,1.35-1.03c.1-.08.14-.21.1-.33"/>
        <path class="cls-1" d="m39.58,25.56s-.04,0-.07,0l-2.73-.64c-.14-.03-.24-.17-.22-.32l.21-1.74c.01-.12.11-.22.23-.25.12-.03.24.03.31.13l.49.79.64-.62c.08-.07.18-.1.28-.07.1.02.18.09.21.19l.29.84.79-.49c.11-.06.24-.06.34.02.1.08.13.21.09.32l-.59,1.65c-.04.12-.15.19-.27.19"/>
        <path class="cls-1" d="m20.26,49.79c-.1,0-.2,0-.31-.02-.75-.08-1.23-.36-1.42-.86-.23-.59-.01-1.43.65-2.49.47-.75.99-1.34,1.01-1.36l.27-.3.2.35s.41.71.72,1.54c.44,1.17.48,2.04.14,2.57-.25.38-.67.57-1.25.57"/>
        <path class="cls-1" d="m21.02,42.02s.71.09.71-.43c0-.61-1.58-1.01-1.58-1.01,0,0,.02-.2-.03-.42-.06-.27-.24-.58-.71-.58h0c-.47,0-.65.3-.71.58-.05.22-.03.42-.03.42,0,0-1.58.4-1.58,1.01,0,.52.71.43.71.43,0,0,.46-.02.31.26-.14.27-.79,1.37-.81,1.68-.02.31-.01.31.2.31h1.17s.13,0,.25-.2c.12-.2.36-.61.36-.61,0,0,.1-.12.14-.13.04,0,.14.13.14.13,0,0,.24.4.36.61.12.2.25.2.25.2h1.17c.21,0,.22,0,.2-.31-.02-.31-.66-1.4-.81-1.68-.15-.27.31-.26.31-.26"/>
        <path class="cls-1" d="m39.82,15.75l-3.64,2.09c-.08.05-.14.12-.16.21l-.18.64c-.03.1,0,.21.06.3l2.24,3c.09.13.26.17.41.11l3.47-1.43c.1-.04.17-.12.2-.23l.18-.64c.02-.09.01-.18-.03-.26l-2.07-3.66c-.09-.17-.31-.23-.47-.13Z"/>
      </g>
      <path class="cls-1" d="m55.9,82.37c-.12-2.74-.69-5.33-1.68-7.69-1-2.36-2.44-4.55-4.3-6.5h0c-3.94-4.12-8.88-6.23-14.68-6.27h-.11c-5.96,0-11.04,2.16-15.08,6.43h0c-3.9,4.16-5.87,9.15-5.87,14.86,0,2.79.49,5.45,1.46,7.91.97,2.45,2.43,4.74,4.34,6.82h0c4.05,4.35,9.09,6.56,14.99,6.56s11.26-2.3,15.35-6.84c1.84-2.04,3.25-4.29,4.18-6.67.93-2.39,1.41-4.98,1.41-7.68v-.94Zm-15.68,7.1c-1.46,1.74-3.15,2.58-5.17,2.58s-3.65-.86-5.2-2.62c-1.58-1.8-2.35-3.82-2.35-6.18,0-1.25.19-2.42.56-3.47.37-1.05.93-2.02,1.68-2.9h0c.7-.85,1.49-1.48,2.34-1.88.86-.41,1.78-.61,2.83-.61h.08c2.09.03,3.8.85,5.24,2.5.72.85,1.27,1.8,1.63,2.82.37,1.03.56,2.18.58,3.42v.18c0,1.17-.19,2.28-.55,3.29-.37,1.02-.93,1.99-1.67,2.88Z"/>
    </g>
  </g>
</svg>