<?xml version="1.0" encoding="UTF-8"?>
<svg id="Layer_2" data-name="Layer 2" xmlns="http://www.w3.org/2000/svg" viewBox="0 0 152.55 60">
  <defs>
    <style>
      .cls-1 {
        fill: #0069b4;
      }

      .cls-1, .cls-2 {
        stroke-width: 0px;
      }

      .cls-2 {
        fill: none;
      }
    </style>
  </defs>
  <g id="Layer_7" data-name="Layer 7">
    <rect class="cls-2" width="152.55" height="60"/>
    <g>
      <g>
        <path class="cls-1" d="m87.6,38.93c-.82,0-1.41.39-1.78,1.17-.37.78-.55,2.08-.55,3.9s.18,3.1.55,3.89c.37.79.96,1.18,1.78,1.18s1.43-.39,1.78-1.18c.35-.79.53-2.09.53-3.89s-.17-3.12-.53-3.9c-.35-.78-.94-1.17-1.78-1.17Z"/>
        <path class="cls-1" d="m123.49,40.36c-.05-.28-.08-.57-.11-.85h-.11c-.03.28-.07.57-.11.85-.05.28-.1.57-.16.85l-.87,4.74h2.42l-.9-4.74c-.06-.28-.11-.57-.16-.85Z"/>
        <path class="cls-1" d="m120.01,25.86c-.05-.23-.09-.45-.13-.68-.04-.23-.07-.45-.09-.68h-.09c-.02.23-.05.45-.09.68-.04.23-.08.45-.13.68l-.7,3.78h1.94l-.72-3.78Z"/>
        <path class="cls-1" d="m112.56,11.92c-.05-.22-.09-.43-.12-.65-.04-.22-.06-.43-.09-.65h-.09c-.02.22-.05.43-.09.65-.04.22-.08.43-.12.65l-.67,3.63h1.86l-.69-3.63Z"/>
        <path class="cls-1" d="m147.72,2.83h-80.92c-.97,0-1.75.79-1.75,1.75v50.76c0,.97.79,1.75,1.75,1.75h80.92c.97,0,1.75-.79,1.75-1.75V4.59c0-.97-.79-1.75-1.75-1.75Zm-11.59,15.6c.03-.16.07-.33.13-.51.06-.18.13-.32.21-.44.09-.12.19-.18.32-.18.1,0,.27.06.51.17s.51.23.82.34c.31.11.65.17,1,.17.2,0,.4-.03.6-.09.19-.06.35-.18.48-.36.12-.18.19-.42.19-.74,0-.24-.05-.44-.14-.62-.09-.17-.21-.33-.37-.46-.15-.14-.33-.27-.53-.39-.2-.12-.41-.24-.64-.35-.39-.23-.73-.46-1.04-.68-.31-.23-.57-.48-.78-.76s-.37-.6-.48-.95c-.11-.35-.16-.76-.16-1.21,0-.54.09-1.02.27-1.44.18-.42.43-.78.75-1.08.32-.3.71-.52,1.15-.68.44-.16.91-.24,1.43-.24.26,0,.53.02.81.06.27.04.54.1.79.18.25.08.47.18.65.31.1.07.21.15.33.26.11.1.17.23.17.38,0,.11-.01.26-.03.43-.02.17-.06.34-.11.5-.05.16-.12.29-.2.4-.08.11-.17.16-.27.16-.09,0-.24-.04-.44-.12-.21-.08-.44-.16-.7-.24-.26-.08-.52-.12-.77-.12-.37,0-.64.06-.83.19-.19.13-.31.27-.38.44-.06.17-.09.32-.09.47,0,.34.09.62.28.82.19.21.43.38.73.53.3.15.61.31.92.5.38.22.7.44.97.67.27.23.5.48.69.75.19.27.33.58.42.93.09.35.14.74.14,1.19s-.08.9-.22,1.33c-.15.43-.37.81-.68,1.16-.3.34-.69.61-1.15.8-.47.19-1.03.29-1.68.29-.25,0-.51-.02-.77-.07-.26-.05-.52-.11-.76-.19-.24-.08-.47-.17-.68-.27-.24-.11-.44-.24-.62-.39s-.26-.3-.26-.47c0-.08.02-.2.04-.36Zm-7.07-9.68c0-.46.21-.68.63-.68h5.03c.34,0,.51.29.51.85v.53c0,.57-.17.85-.51.85h-3.01v2.48h2.69c.33,0,.5.29.5.85v.53c0,.57-.16.85-.5.85h-2.69v2.77h3.01c.34,0,.51.29.51.86v.53c0,.57-.17.86-.51.86h-5.03c-.42,0-.63-.23-.63-.68v-10.61Zm-1.09,13.29c.11.08.2.2.27.36l2.79,5.55c.06.13.12.29.2.48.07.19.14.38.2.57l.09-.02c-.03-.2-.05-.4-.07-.61-.02-.2-.04-.4-.04-.61v-5.37c0-.19.09-.34.26-.44.17-.1.44-.15.81-.15h.43c.38,0,.65.05.82.15.17.1.25.25.25.44v11.39c0,.19-.08.34-.25.44-.17.1-.44.15-.82.15h-.61c-.26,0-.48-.02-.64-.05-.17-.04-.3-.1-.41-.19-.11-.09-.2-.2-.27-.35l-2.8-5.64c-.06-.13-.12-.29-.2-.48-.07-.19-.14-.38-.2-.57l-.09.02c.02.2.05.4.07.61.02.2.04.4.04.61v5.46c0,.19-.08.34-.25.44-.17.1-.44.15-.82.15h-.43c-.37,0-.64-.05-.81-.15-.17-.1-.26-.25-.26-.44v-11.39c0-.19.09-.34.26-.44.17-.1.44-.15.81-.15h.61c.27,0,.49.02.66.05.17.04.3.1.41.18Zm-10.37-13.44c0-.18.08-.32.25-.42.16-.1.42-.15.78-.15h.51c.42,0,.71.03.88.1.16.07.29.19.37.38l1.71,3.87c.09.22.16.42.22.62.06.19.11.37.15.53.03-.16.08-.34.13-.53.05-.19.13-.4.23-.62l1.73-3.87c.08-.18.2-.31.37-.38.17-.07.46-.1.88-.1h.51c.36,0,.63.05.79.15.16.1.24.24.24.42v10.92c0,.18-.08.32-.24.42-.16.1-.42.15-.79.15h-.41c-.35,0-.61-.05-.78-.15-.17-.1-.25-.24-.25-.42v-5.05c0-.16,0-.32.02-.48.01-.16.04-.31.07-.46l-.07-.02c-.05.14-.1.27-.16.4-.06.13-.12.27-.18.4l-.96,2.19c-.07.15-.18.25-.33.32-.15.06-.37.09-.66.09h-.29c-.29,0-.51-.03-.67-.09-.17-.06-.28-.17-.35-.32l-.91-2.19c-.05-.13-.1-.26-.15-.39-.06-.14-.11-.27-.17-.41l-.07.02c.02.15.04.3.05.46.01.16.02.32.02.48v5.05c0,.18-.08.32-.24.42-.16.1-.42.15-.79.15h-.41c-.35,0-.61-.05-.78-.15-.17-.1-.25-.24-.25-.42v-10.92Zm-9.51,10.92c0-.05.03-.15.06-.3l2.46-10.54c.06-.25.18-.42.36-.51.18-.09.42-.14.72-.14h1.28c.32,0,.57.05.74.14.18.09.29.26.35.51l2.46,10.54c.03.15.05.25.06.3,0,.05,0,.1,0,.15,0,.11-.06.21-.17.29-.12.08-.3.12-.57.12h-.91c-.24,0-.45-.03-.62-.09s-.27-.18-.31-.36l-.38-2h-2.64l-.37,2c-.04.18-.14.3-.31.36s-.37.09-.6.09h-.92c-.26,0-.45-.04-.57-.12s-.17-.18-.17-.29c0-.05,0-.09,0-.15Zm-7.44-10.08c.8-1.01,2.04-1.51,3.73-1.51.18,0,.36,0,.53.02.17.01.33.03.49.04.15.02.29.04.41.06.12.02.22.05.3.07.2.06.35.14.42.25s.11.25.11.44c0,.16-.01.33-.04.51-.03.18-.07.36-.12.52-.05.17-.12.3-.2.4-.09.1-.18.15-.28.15-.06,0-.13,0-.23-.03-.1-.02-.21-.03-.34-.05-.13-.02-.27-.03-.43-.05-.15-.02-.32-.03-.49-.03-.81,0-1.4.3-1.76.9-.36.6-.55,1.57-.55,2.9,0,.97.07,1.74.2,2.31.14.57.37.98.68,1.22.32.25.75.37,1.28.37.09,0,.2,0,.34-.02.05,0,.12-.02.17-.02v-2.66h-.91c-.34,0-.51-.29-.51-.86v-.5c0-.57.17-.86.51-.86h2.81c.42,0,.63.23.63.68v5.1c0,.15-.04.28-.13.4-.09.12-.22.22-.4.32-.23.13-.49.24-.79.33-.3.1-.61.17-.95.23-.34.06-.69.09-1.07.09-1.62,0-2.8-.5-3.53-1.5-.73-1-1.1-2.55-1.1-4.66s.4-3.57,1.2-4.58Zm-10.61-.69c0-.46.21-.68.63-.68h5.03c.34,0,.51.29.51.85v.53c0,.57-.17.85-.51.85h-3.01v2.48h2.69c.33,0,.5.29.5.85v.53c0,.57-.16.85-.5.85h-2.69v2.77h3.01c.34,0,.51.29.51.86v.53c0,.57-.17.86-.51.86h-5.03c-.42,0-.63-.23-.63-.68v-10.61Zm-9.94-.15c0-.18.08-.32.25-.42.16-.1.42-.15.78-.15h.6c.36,0,.63.05.79.15.16.1.24.24.24.42v4.21h2.93v-4.21c0-.18.08-.32.25-.42.17-.1.42-.15.78-.15h.6c.36,0,.63.05.79.15.16.1.24.24.24.42v10.92c0,.18-.08.32-.24.42-.16.1-.42.15-.79.15h-.6c-.35,0-.61-.05-.78-.15-.17-.1-.25-.24-.25-.42v-4.47h-2.93v4.47c0,.18-.08.32-.24.42-.16.1-.42.15-.79.15h-.6c-.35,0-.61-.05-.78-.15-.17-.1-.25-.24-.25-.42v-10.92Zm-8.53.32c0-.57.17-.85.51-.85h6.48c.34,0,.51.29.51.85v.53c0,.57-.17.85-.51.85h-1.92v9.21c0,.18-.08.32-.24.42-.16.1-.42.15-.79.15h-.6c-.35,0-.61-.05-.78-.15-.17-.1-.25-.24-.25-.42v-9.21h-1.92c-.34,0-.51-.28-.51-.85v-.53Zm.38,12.96c.17-.05.44-.07.79-.07h.82c.24,0,.45.03.64.09.19.06.32.2.39.41l1.29,3.99,1.17-3.99c.06-.21.19-.35.38-.41.2-.06.41-.09.65-.09h.73c.36,0,.62.02.79.07.17.05.26.14.26.29,0,.07-.02.15-.05.24-.03.09-.06.18-.1.28l-2.55,6.62v4.48c0,.19-.08.34-.25.44-.17.1-.44.15-.82.15h-.62c-.37,0-.64-.05-.81-.15-.17-.1-.26-.25-.26-.44v-4.48l-2.59-6.62c-.04-.1-.07-.19-.1-.28-.03-.09-.04-.17-.04-.24,0-.14.09-.24.26-.29Zm9.58,16.11c0,.75-.22,1.12-.67,1.12h-2.5v12.03c0,.24-.1.42-.31.55-.21.13-.55.19-1.03.19h-.78c-.46,0-.8-.06-1.02-.19-.22-.13-.32-.31-.32-.55v-12.03h-2.5c-.45,0-.67-.37-.67-1.12v-.69c0-.74.22-1.12.67-1.12h8.47c.45,0,.67.37.67,1.12v.69Zm-.49-5.06c-.76-1.04-1.13-2.65-1.13-4.84s.38-3.8,1.13-4.84c.76-1.04,1.93-1.55,3.53-1.55s2.79.52,3.54,1.55c.76,1.04,1.13,2.65,1.13,4.84s-.38,3.8-1.13,4.84c-.76,1.04-1.94,1.55-3.54,1.55s-2.77-.52-3.53-1.55Zm10.98,17.13c-.95,1.3-2.42,1.94-4.44,1.94s-3.47-.65-4.41-1.94c-.95-1.3-1.42-3.32-1.42-6.06s.47-4.76,1.42-6.06,2.42-1.94,4.41-1.94,3.49.65,4.44,1.94,1.42,3.32,1.42,6.06-.47,4.76-1.42,6.06Zm-.19-16.59c-.79-.67-1.18-1.6-1.18-2.79v-8.28c0-.19.09-.34.26-.44.17-.1.44-.15.81-.15h.62c.38,0,.65.05.82.15.17.1.25.25.25.44v8.1c0,.51.15.91.45,1.21.3.29.71.44,1.25.44s.94-.15,1.24-.44c.3-.29.45-.69.45-1.21v-8.1c0-.19.09-.34.26-.44.17-.1.44-.15.81-.15h.63c.38,0,.65.05.82.15.17.1.25.25.25.44v8.28c0,1.19-.39,2.12-1.18,2.79-.79.67-1.88,1.01-3.29,1.01s-2.5-.34-3.28-1.01Zm14.81,11.3c-.8.83-2.02,1.24-3.65,1.24h-1.23v5.12c0,.24-.1.42-.31.55-.21.13-.55.19-1.03.19h-.78c-.46,0-.8-.06-1.02-.19s-.32-.31-.32-.55v-14.06c0-.6.28-.89.83-.89h3.87c1.64,0,2.86.41,3.65,1.23.8.82,1.19,2.05,1.19,3.69s-.4,2.85-1.19,3.68Zm1.17-10.54c-.2.09-.41.13-.63.13h-1.34c-.24,0-.45-.05-.64-.13-.19-.09-.32-.27-.37-.54l-2-11c-.01-.06-.03-.14-.05-.24-.02-.1-.03-.18-.03-.22,0-.13.06-.23.18-.31.12-.08.32-.12.59-.12h.95c.25,0,.47.03.65.09.18.06.29.18.31.37l1.16,9.35h.07l1.45-9.26c.04-.24.13-.39.28-.46.15-.07.38-.1.69-.1h.54c.31,0,.54.03.69.1.15.07.24.22.28.46l1.41,9.32h.07l1.11-9.41c.02-.19.13-.31.31-.37.18-.06.4-.09.63-.09h.96c.27,0,.47.04.59.12.12.08.18.18.18.31,0,.05,0,.1-.02.15-.01.05-.03.16-.05.31l-2.07,11c-.05.27-.17.46-.37.54-.2.09-.41.13-.63.13h-1.34c-.24,0-.45-.05-.65-.13-.2-.09-.32-.27-.37-.54l-1.02-6.64h-.07l-1.07,6.64c-.05.27-.17.46-.37.54Zm8.83,16.47c0,.74-.22,1.12-.67,1.12h-5.9c-.55,0-.83-.3-.83-.89v-14.06c0-.24.11-.42.32-.55.22-.13.56-.19,1.02-.19h.78c.48,0,.82.06,1.03.19.21.13.31.31.31.55v12.03h3.26c.45,0,.67.37.67,1.12v.69Zm.43-16.34h-.96c-.27,0-.47-.04-.59-.12-.12-.08-.18-.18-.18-.3,0-.05,0-.1.01-.15,0-.05.03-.16.06-.31l2.57-11c.06-.26.18-.44.37-.54.19-.09.44-.14.75-.14h1.34c.33,0,.59.05.78.14.18.1.31.27.37.54l2.57,11c.04.15.06.26.06.31,0,.05.01.1.01.15,0,.12-.06.22-.18.3s-.32.12-.59.12h-.95c-.25,0-.46-.03-.64-.09-.18-.06-.29-.18-.32-.37l-.4-2.09h-2.75l-.38,2.09c-.04.19-.14.32-.32.37-.18.06-.39.09-.63.09Zm11.64,17.34c-.15.1-.4.16-.74.16h-1.18c-.31,0-.58-.04-.81-.11-.22-.07-.36-.23-.4-.47l-.5-2.62h-3.45l-.48,2.62c-.05.24-.18.39-.4.47-.22.07-.48.11-.78.11h-1.21c-.34,0-.59-.05-.74-.16-.15-.1-.22-.23-.22-.38,0-.06,0-.12.01-.19,0-.07.03-.2.08-.39l3.22-13.77c.08-.33.23-.55.47-.67s.55-.18.94-.18h1.68c.42,0,.74.06.97.18s.38.34.46.67l3.22,13.77c.05.19.07.32.08.39,0,.07.01.13.01.19,0,.15-.08.28-.22.38Zm8.73-14.83c-.04.11-.08.23-.12.35l-3.2,8.29v5.61c0,.24-.11.42-.31.55s-.55.19-1.03.19h-.78c-.46,0-.8-.06-1.02-.19s-.32-.31-.32-.55v-5.61l-3.24-8.29c-.04-.12-.09-.23-.12-.35-.04-.11-.06-.21-.06-.3,0-.18.11-.3.32-.36.22-.06.55-.09.99-.09h1.03c.3,0,.57.04.81.11.24.07.4.25.49.51l1.62,5,1.47-5c.08-.27.23-.44.48-.51.24-.07.52-.11.82-.11h.92c.45,0,.78.03,1,.09.22.06.32.18.32.36,0,.09-.02.19-.06.3Zm4.31,14.27c0,.24-.1.42-.31.54-.21.12-.55.18-1.03.18h-.72c-.46,0-.8-.06-1.02-.18-.22-.12-.32-.3-.32-.54v-2.06c0-.24.11-.42.32-.54.22-.12.56-.18,1.02-.18h.72c.48,0,.82.06,1.03.18.21.12.31.3.31.54v2.06Zm-.42-5.01c-.02.24-.09.42-.23.54-.14.12-.44.18-.91.18h-.24c-.46,0-.77-.06-.92-.18-.15-.12-.22-.3-.22-.54v-9.23c0-.27.11-.47.33-.59.21-.13.55-.19,1.02-.19h.96c.43,0,.77.06,1.01.18.24.12.34.33.31.63l-1.1,9.21Zm1.63-22.86c0,.6-.18.89-.54.89h-2v9.6c0,.19-.08.34-.25.44-.17.1-.44.15-.82.15h-.62c-.37,0-.64-.05-.81-.15-.17-.1-.26-.25-.26-.44v-9.6h-2c-.36,0-.54-.3-.54-.89v-.55c0-.59.18-.89.54-.89h6.77c.36,0,.54.3.54.89v.55Z"/>
        <path class="cls-1" d="m102.98,39.11h-1.23v3.98h1.23c.57,0,.96-.16,1.17-.47.22-.31.32-.82.32-1.52s-.11-1.21-.32-1.52-.61-.47-1.17-.47Z"/>
        <path class="cls-1" d="m86,31.2c.28-.63.42-1.67.42-3.11s-.14-2.49-.42-3.11c-.28-.62-.75-.94-1.42-.94s-1.13.31-1.42.94-.44,1.66-.44,3.11.14,2.47.44,3.11c.29.63.77.95,1.42.95s1.14-.32,1.42-.95Z"/>
      </g>
      <path class="cls-1" d="m22.96,30.69c.65,2.2,2.51,5.88,7.53,5.47,0,0,6.08.74,7.59-5.47h-15.13Z"/>
      <path class="cls-1" d="m22,12.92c-1.24,0-2.26,1.46-2.26,3.26s1.01,3.26,2.26,3.26,2.26-1.46,2.26-3.26-1.01-3.26-2.26-3.26Zm-.7,1.95c-.36.54-.27.67-.58,1.13-.38.56-.7-.82-.23-1.64.32-.57,1.4-1.5,2.14-.86.2.17-.71.45-1.33,1.38Z"/>
      <path class="cls-1" d="m14.07,32.56c0,7.83,6.74,3.79,6.74,6.48,0,.76-.38.93-1.21.93-1.06,0-2.88-.34-7.12-.34-5.08,0-6.44.34-6.97.34-.61,0-.84-.25-.84-.76,0-1.77,3.87-1.43,3.87-4.88V12.6c0-5.05-5.46-2.86-5.46-4.63,0-.51.61-.84.99-.92,5.83-1.52,7.35-4.21,9.09-4.21.46,0,.91.51.91,1.35v6.31h.15c1.59-2.44,4.32-6.99,7.5-6.99,1.59,0,5,2.19,5,3.79,0,1.26-1.82,3.79-2.73,3.79-1.44,0-2.27-1.94-5-1.94-3.11,0-4.92,3.87-4.92,4.97v18.44Z"/>
      <path class="cls-1" d="m46.72,14.12c0-1.09-1.82-4.97-4.93-4.97-2.73,0-3.56,1.94-5,1.94-.91,0-2.73-2.52-2.73-3.79,0-1.6,3.41-3.79,5-3.79,3.18,0,5.91,4.55,7.5,6.99h.15v-6.31c0-.84.45-1.35.91-1.35,1.74,0,3.26,2.69,9.09,4.21.38.08.98.42.98.93,0,1.77-5.46-.42-5.46,4.63v21.72c0,3.45,3.86,3.11,3.86,4.88,0,.51-.23.76-.83.76-.53,0-1.89-.34-6.97-.34-4.24,0-6.06.34-7.12.34-.84,0-1.21-.17-1.21-.93,0-2.69,6.74,1.35,6.74-6.48V14.12Z"/>
      <path class="cls-1" d="m34.74,22.73c0-.67-.4-1.22-1.03-1.22-.52,0-.96.42-.96,1.02,0,.37.16.69.52.69.23,0,.39-.24.39-.42,0-.34-.5-.07-.5-.49,0-.21.19-.52.49-.53.43-.03.68.31.68.78,0,1.06-1.38,1.64-2.11,1.95-.62.26-1.43.62-1.43,1.5,0,.44.17,1.06.69,1.06.3,0,.58-.15.58-.47,0-.08-.05-.08-.09-.08-.14,0-.1.23-.43.23-.18,0-.31-.33-.31-.5,0-.48.29-.82.73-.82.58,0,.87.4.87,1.02,0,1.22-1.26,2.03-2.23,2.03-1.24,0-2.17-1.09-2.17-2.45,0-.68.26-1.22.82-1.53.16.39.51.76.91.76s.77-.25.77-.76c0-.46-.45-.62-.79-.62-.41,0-.42.06-.69.16-.03-.12-.03-.25-.03-.35,0-1.12.81-1.64,1.3-1.64.23,0,.67.11.67.45,0,.16-.15.2-.15.47,0,.12.06.13.18.13.35,0,.62-.35.62-.72,0-.6-.55-.88-1.03-.88-1.06,0-1.92.92-1.92,2.1,0,.19.02.41.07.59-.85.38-1.41,1.41-1.41,2.41,0,.27.06,2.29,2.49,2.29,1.87,0,3.07-1.52,3.07-2.73,0-.48-.17-.91-.57-1.12.84-.4,1.99-1.15,1.99-2.32Zm-4.67,1.47c.22,0,.41.06.41.35,0,.16-.14.34-.29.34-.35,0-.57-.14-.67-.52.18-.12.34-.16.54-.16Z"/>
      <path class="cls-1" d="m38.84,12.97c-1.25,0-2.26,1.46-2.26,3.26s1.01,3.26,2.26,3.26,2.25-1.46,2.25-3.26-1.01-3.26-2.25-3.26Zm-.71,1.95c-.36.54-.27.67-.58,1.13-.38.56-.7-.82-.23-1.65.32-.57,1.4-1.5,2.14-.86.2.17-.71.45-1.33,1.38Z"/>
      <path class="cls-1" d="m53.97,12.46c0-1.1.83-1.93,1.89-1.93s1.88.83,1.88,1.93-.83,1.94-1.88,1.94-1.89-.82-1.89-1.94Zm1.89,2.33c1.27,0,2.35-.98,2.35-2.33s-1.08-2.32-2.35-2.32-2.36.98-2.36,2.32,1.08,2.33,2.36,2.33Zm-.49-2.15h.47l.71,1.16h.46l-.76-1.18c.39-.05.69-.26.69-.74,0-.53-.31-.76-.95-.76h-1.02v2.68h.4v-1.16Zm0-.35v-.83h.55c.28,0,.59.06.59.39,0,.41-.31.44-.65.44h-.49Z"/>
      <g>
        <path class="cls-1" d="m5,50.91c-.24,0-.41-.03-.52-.1-.11-.06-.17-.16-.17-.28v-7.19c0-.3.14-.46.42-.46h2.26c1.01,0,1.74.2,2.2.59.46.4.69.96.69,1.68,0,.33-.05.62-.14.87-.1.25-.24.46-.42.64s-.42.31-.7.41v.05c.13.05.26.14.39.3s.24.33.31.53l.93,2.31c.04.08.07.16.09.23.02.07.03.13.03.17,0,.1-.05.17-.15.2-.1.03-.27.05-.51.05h-.47c-.17,0-.31-.02-.43-.06-.12-.04-.21-.14-.27-.28l-.86-2.08c-.06-.16-.14-.29-.22-.39-.09-.1-.2-.17-.35-.22-.15-.05-.34-.07-.59-.07h-.43v2.73c0,.12-.05.22-.16.28-.11.06-.28.1-.53.1h-.4Zm1.09-4.49h1.01c.35,0,.6-.08.76-.24.16-.16.23-.42.23-.78s-.08-.62-.23-.78c-.16-.16-.41-.24-.76-.24h-1.01v2.03Z"/>
        <path class="cls-1" d="m15.64,50.91c-.24,0-.41-.03-.52-.1-.11-.06-.17-.16-.17-.28v-7.19c0-.3.14-.46.42-.46h2.26c1.01,0,1.74.2,2.2.59.46.4.69.96.69,1.68,0,.33-.05.62-.14.87-.1.25-.24.46-.42.64s-.42.31-.7.41v.05c.13.05.26.14.39.3s.24.33.31.53l.93,2.31c.04.08.07.16.09.23.02.07.03.13.03.17,0,.1-.05.17-.15.2-.1.03-.27.05-.51.05h-.47c-.17,0-.31-.02-.43-.06-.12-.04-.21-.14-.27-.28l-.86-2.08c-.06-.16-.14-.29-.22-.39-.09-.1-.2-.17-.35-.22-.15-.05-.34-.07-.59-.07h-.43v2.73c0,.12-.05.22-.16.28-.11.06-.28.1-.53.1h-.4Zm1.09-4.49h1.01c.35,0,.6-.08.76-.24.16-.16.23-.42.23-.78s-.08-.62-.23-.78c-.16-.16-.41-.24-.76-.24h-1.01v2.03Z"/>
        <path class="cls-1" d="m27.28,50.98c-1.28,0-2.23-.33-2.84-1s-.92-1.7-.92-3.11.32-2.38.96-3.06c.64-.67,1.59-1.01,2.86-1.01.18,0,.37,0,.57.03.19.02.39.05.58.09s.37.08.53.14c.16.05.3.11.42.18.09.05.16.11.22.17s.08.13.08.19c0,.08-.02.17-.06.29-.04.12-.1.23-.16.35-.06.11-.13.21-.21.29s-.15.11-.22.11c-.09,0-.19-.02-.3-.05s-.23-.07-.37-.11c-.14-.04-.3-.08-.47-.11s-.39-.05-.63-.05c-.67,0-1.17.21-1.49.64-.32.43-.49,1.07-.49,1.93,0,.65.07,1.16.22,1.54.14.38.36.65.65.82s.65.25,1.09.25c.21,0,.41-.02.61-.05.2-.03.38-.07.55-.13.17-.05.31-.11.41-.17l-.56.85v-2.31h-1.18c-.23,0-.34-.19-.34-.57v-.33c0-.38.11-.57.34-.57h2.45c.28,0,.42.15.42.46v3.41c0,.1-.03.19-.09.27s-.15.15-.27.21c-.15.08-.36.16-.62.22-.26.06-.54.12-.84.15s-.6.06-.89.06Z"/>
        <path class="cls-1" d="m30.99,50.91c-.24,0-.41-.02-.53-.07-.11-.05-.17-.11-.17-.18,0-.03,0-.06.02-.1.01-.03.02-.07.03-.11l2.51-7.35c.03-.08.1-.14.2-.18.11-.04.26-.06.45-.06h.59c.2,0,.35.02.45.06s.17.1.2.18l2.51,7.35s.02.07.03.11c0,.03,0,.07,0,.1,0,.08-.05.14-.14.18-.09.05-.24.07-.43.07h-.5c-.17,0-.31-.02-.42-.05-.11-.03-.19-.1-.22-.19l-1.6-4.94c-.04-.12-.07-.24-.1-.37-.03-.12-.05-.24-.08-.37h-.05c-.02.12-.05.24-.07.37s-.06.24-.1.37l-1.62,4.94c-.03.08-.09.14-.18.18-.09.04-.2.06-.34.06h-.46Zm.86-1.7v-1.38h3.91v1.38h-3.91Z"/>
        <path class="cls-1" d="m38.29,50.91c-.24,0-.41-.03-.52-.1-.11-.06-.17-.16-.17-.28v-7.29c0-.12.05-.21.17-.28.11-.06.28-.1.52-.1h.61c.17,0,.32.03.45.07.13.05.24.14.31.28l1.73,3.1c.06.1.12.2.18.31s.1.21.13.29c.04-.08.09-.18.14-.3.06-.12.1-.22.14-.3l1.76-3.1c.08-.14.18-.24.3-.29.12-.05.26-.07.43-.07h.59c.24,0,.42.03.53.1s.16.16.16.28v7.3c0,.12-.05.21-.16.27-.11.06-.28.09-.53.09h-.27c-.24,0-.41-.03-.52-.1-.11-.06-.17-.16-.17-.28v-4.72h-.05c-.04.06-.08.14-.13.21-.05.07-.09.15-.13.22l-1.35,2.43c-.06.11-.15.19-.26.23-.11.04-.26.06-.45.06h-.15c-.19,0-.34-.02-.45-.06-.11-.04-.2-.12-.26-.23l-1.35-2.43c-.04-.08-.08-.15-.13-.22-.05-.07-.09-.15-.13-.22h-.04v4.73c0,.12-.05.22-.16.28-.11.06-.28.1-.53.1h-.27Z"/>
        <path class="cls-1" d="m46.49,50.89c-.28,0-.42-.15-.42-.46v-7.09c0-.3.14-.46.42-.46h4.08c.23,0,.34.19.34.57v.35c0,.38-.11.57-.34.57h-2.73v1.66h2.43c.22,0,.33.19.33.57v.35c0,.38-.11.57-.33.57h-2.43v1.85h2.74c.23,0,.34.19.34.57v.35c0,.38-.11.57-.34.57h-4.09Z"/>
        <path class="cls-1" d="m53.77,50.98c-.38,0-.72-.03-1.02-.09-.3-.06-.56-.13-.77-.22-.21-.09-.39-.18-.53-.26-.11-.07-.19-.13-.26-.2-.07-.06-.1-.14-.1-.23s.01-.2.04-.31.06-.23.11-.35c.05-.11.1-.21.16-.29s.12-.11.18-.11c.07,0,.2.05.41.14.2.1.44.19.72.29.28.1.57.14.87.14.22,0,.4-.03.54-.08s.25-.14.32-.25c.07-.11.11-.26.11-.43s-.05-.34-.15-.46c-.1-.12-.24-.23-.41-.33-.17-.1-.36-.18-.57-.26s-.42-.17-.63-.27c-.2-.09-.39-.2-.57-.32-.18-.12-.35-.27-.5-.45-.15-.18-.27-.39-.35-.64-.08-.25-.13-.55-.13-.89,0-.41.08-.76.23-1.06.16-.29.36-.53.62-.71.26-.18.55-.32.87-.41.32-.09.65-.13.98-.13.24,0,.48.02.71.06.23.04.44.09.63.15.19.06.34.14.46.22.08.05.15.11.21.17s.08.12.08.18c0,.08-.01.17-.04.29s-.06.23-.1.35-.09.21-.15.29c-.06.08-.13.11-.19.11-.09,0-.21-.03-.36-.09-.15-.06-.32-.11-.53-.17-.2-.06-.43-.09-.68-.09-.21,0-.39.03-.54.08-.14.05-.25.13-.33.23-.07.1-.11.23-.11.39,0,.19.06.35.17.47.11.13.27.23.46.32.19.09.4.18.62.28.24.1.48.21.72.33s.47.27.68.45c.2.18.37.4.5.67.13.27.19.61.19,1.01,0,.45-.07.83-.22,1.14s-.35.56-.6.75c-.25.19-.53.33-.83.42-.3.09-.61.13-.93.13Z"/>
        <g>
          <path class="cls-1" d="m4.77,57.12c-.16,0-.27-.02-.35-.06-.07-.04-.11-.11-.11-.19v-4.85c0-.08.04-.14.11-.19.07-.04.19-.06.35-.06h.27c.16,0,.28.02.35.06s.11.11.11.19v4.85c0,.08-.04.14-.11.19s-.19.06-.35.06h-.27Z"/>
          <path class="cls-1" d="m6.67,57.12c-.16,0-.27-.02-.35-.06-.07-.04-.11-.11-.11-.19v-4.85c0-.08.04-.14.11-.19.07-.04.19-.06.35-.06h.26c.09,0,.17,0,.23.02.06.01.12.04.17.07s.1.09.16.17l1.8,2.62c.06.08.11.16.16.26s.1.19.14.27h.03c0-.09-.01-.19-.02-.29s-.01-.2-.01-.32v-2.56c0-.08.04-.14.11-.19.07-.04.19-.06.35-.06h.18c.16,0,.28.02.35.06s.11.11.11.19v4.85c0,.08-.04.14-.11.19s-.19.06-.35.06h-.26c-.08,0-.14,0-.21-.02s-.12-.03-.16-.06c-.05-.03-.09-.07-.13-.13l-1.86-2.71c-.05-.08-.1-.16-.16-.26s-.1-.19-.15-.27h-.03c0,.09.02.19.02.29s0,.2,0,.32v2.59c0,.08-.04.14-.11.19s-.19.06-.35.06h-.18Z"/>
          <path class="cls-1" d="m13.85,57.17c-.85,0-1.48-.22-1.89-.67-.41-.44-.61-1.13-.61-2.07s.21-1.59.64-2.03,1.06-.67,1.9-.67c.16,0,.33.01.51.03s.34.06.5.1.29.1.39.16c.06.04.11.07.14.11s.05.08.05.13c0,.05-.01.12-.03.19s-.05.16-.09.23-.08.14-.12.19-.09.08-.14.08c-.06,0-.15-.02-.26-.06s-.25-.07-.41-.11-.35-.05-.57-.05c-.3,0-.55.06-.74.19-.2.13-.34.32-.43.57-.09.25-.14.57-.14.95s.05.7.14.95.24.45.43.58.43.2.72.2c.18,0,.35-.02.49-.05s.28-.07.39-.11.21-.08.28-.11.13-.05.17-.05c.06,0,.11.03.16.08s.08.12.11.2.05.15.07.22.02.13.02.16c0,.09-.02.15-.06.19s-.12.09-.24.16c-.12.07-.27.12-.43.16-.17.04-.33.07-.5.1-.17.02-.33.03-.47.03Z"/>
          <path class="cls-1" d="m18.18,57.17c-.78,0-1.38-.23-1.81-.7-.42-.47-.64-1.14-.64-2.02s.21-1.55.64-2.02c.42-.47,1.02-.7,1.81-.7s1.39.23,1.81.7.63,1.14.63,2.02-.21,1.55-.63,2.02-1.02.7-1.81.7Zm0-1c.41,0,.71-.15.92-.44s.31-.72.31-1.29-.1-1-.31-1.29-.51-.43-.92-.43-.71.14-.92.43c-.21.29-.32.72-.32,1.29s.11,1,.32,1.29c.21.29.52.44.92.44Z"/>
          <path class="cls-1" d="m21.68,57.12c-.16,0-.27-.02-.35-.06-.07-.04-.11-.11-.11-.19v-4.78c0-.2.09-.3.28-.3h1.51c.67,0,1.16.13,1.46.4.31.26.46.64.46,1.12,0,.22-.03.41-.09.58-.06.17-.16.31-.28.43-.12.12-.28.21-.47.27v.03c.09.03.17.1.26.2.09.1.16.22.21.35l.62,1.54c.02.06.04.11.06.15.01.05.02.08.02.11,0,.07-.03.11-.1.13s-.18.03-.34.03h-.31c-.11,0-.21-.01-.28-.04-.08-.03-.14-.09-.18-.19l-.57-1.38c-.04-.11-.09-.19-.15-.26-.06-.07-.14-.12-.23-.15s-.23-.05-.4-.05h-.29v1.82c0,.08-.04.14-.11.19s-.19.06-.35.06h-.27Zm.72-2.99h.67c.23,0,.4-.05.51-.16.1-.11.16-.28.16-.52s-.05-.41-.16-.52c-.1-.11-.27-.16-.51-.16h-.67v1.35Z"/>
          <path class="cls-1" d="m26.15,57.12c-.16,0-.27-.02-.35-.06-.07-.04-.11-.11-.11-.19v-4.78c0-.2.09-.3.28-.3h1.57c.62,0,1.08.14,1.4.42s.47.7.47,1.25-.16.97-.47,1.25-.78.42-1.4.42h-.67v1.74c0,.08-.04.14-.11.19s-.19.06-.35.06h-.27Zm.72-2.99h.67c.23,0,.4-.05.51-.16.1-.11.16-.28.16-.52s-.05-.41-.16-.52c-.1-.11-.27-.16-.51-.16h-.67v1.35Z"/>
          <path class="cls-1" d="m32.24,57.17c-.78,0-1.38-.23-1.81-.7-.42-.47-.64-1.14-.64-2.02s.21-1.55.64-2.02c.42-.47,1.02-.7,1.81-.7s1.39.23,1.81.7.63,1.14.63,2.02-.21,1.55-.63,2.02-1.02.7-1.81.7Zm0-1c.41,0,.71-.15.92-.44s.31-.72.31-1.29-.1-1-.31-1.29-.51-.43-.92-.43-.71.14-.92.43c-.21.29-.32.72-.32,1.29s.11,1,.32,1.29c.21.29.52.44.92.44Z"/>
          <path class="cls-1" d="m35.74,57.12c-.16,0-.27-.02-.35-.06-.07-.04-.11-.11-.11-.19v-4.78c0-.2.09-.3.28-.3h1.51c.67,0,1.16.13,1.46.4.31.26.46.64.46,1.12,0,.22-.03.41-.09.58-.06.17-.16.31-.28.43-.12.12-.28.21-.47.27v.03c.09.03.17.1.26.2.09.1.16.22.21.35l.62,1.54c.02.06.04.11.06.15.01.05.02.08.02.11,0,.07-.03.11-.1.13s-.18.03-.34.03h-.31c-.11,0-.21-.01-.28-.04-.08-.03-.14-.09-.18-.19l-.57-1.38c-.04-.11-.09-.19-.15-.26-.06-.07-.14-.12-.23-.15s-.23-.05-.4-.05h-.29v1.82c0,.08-.04.14-.11.19s-.19.06-.35.06h-.27Zm.72-2.99h.67c.23,0,.4-.05.51-.16.1-.11.16-.28.16-.52s-.05-.41-.16-.52c-.1-.11-.27-.16-.51-.16h-.67v1.35Z"/>
          <path class="cls-1" d="m40,57.12c-.16,0-.27-.02-.35-.05s-.11-.07-.11-.12c0-.02,0-.04.01-.06s.01-.05.02-.07l1.67-4.89c.02-.06.07-.1.14-.12s.17-.04.3-.04h.4c.13,0,.23.01.3.04s.11.07.13.12l1.67,4.89s.02.05.02.07c0,.02,0,.04,0,.06,0,.05-.03.09-.09.12s-.16.05-.29.05h-.33c-.11,0-.21-.01-.28-.03s-.12-.06-.14-.13l-1.06-3.29c-.02-.08-.05-.16-.06-.24-.02-.08-.03-.16-.05-.24h-.03c-.02.08-.03.16-.05.24-.02.08-.04.16-.07.24l-1.08,3.29c-.02.06-.06.1-.12.12s-.14.04-.23.04h-.3Zm.57-1.13v-.92h2.6v.92h-2.6Z"/>
          <path class="cls-1" d="m45.52,57.12c-.16,0-.27-.02-.35-.06-.07-.04-.11-.1-.11-.18v-4.1h-1.21c-.15,0-.23-.13-.23-.38v-.24c0-.25.08-.38.23-.38h3.6c.15,0,.23.13.23.38v.24c0,.25-.08.38-.23.38h-1.21v4.1c0,.08-.04.14-.11.18s-.19.06-.35.06h-.27Z"/>
          <path class="cls-1" d="m48.33,57.11c-.19,0-.28-.1-.28-.3v-4.72c0-.2.09-.3.28-.3h2.71c.15,0,.23.13.23.38v.24c0,.25-.08.38-.23.38h-1.82v1.1h1.62c.15,0,.22.13.22.38v.24c0,.25-.07.38-.22.38h-1.62v1.23h1.83c.15,0,.23.13.23.38v.24c0,.25-.08.38-.23.38h-2.72Z"/>
          <path class="cls-1" d="m52.19,57.11c-.19,0-.28-.1-.28-.3v-4.72c0-.2.09-.3.28-.3h1.73c.79,0,1.39.23,1.81.68s.63,1.12.63,1.98-.21,1.51-.63,1.97-1.02.69-1.81.69h-1.73Zm.9-1h.84c.41,0,.71-.14.92-.42s.31-.7.31-1.24-.1-.96-.31-1.24-.51-.42-.92-.42h-.84v3.33Z"/>
        </g>
        <path class="cls-1" d="m15.14,44.84c0-.56-.33-1.01-.85-1.01-.43,0-.79.35-.79.85,0,.3.14.57.43.57.19,0,.32-.2.32-.35,0-.28-.41-.06-.41-.41,0-.18.16-.43.4-.44.36-.03.56.25.56.64,0,.88-1.14,1.36-1.75,1.62-.52.21-1.19.52-1.19,1.24,0,.36.14.88.57.88.25,0,.48-.13.48-.39,0-.07-.04-.07-.08-.07-.11,0-.08.19-.36.19-.15,0-.26-.27-.26-.41,0-.4.24-.68.61-.68.48,0,.72.33.72.85,0,1.01-1.04,1.68-1.85,1.68-1.03,0-1.79-.9-1.79-2.03,0-.57.22-1.01.68-1.27.13.32.42.63.75.63s.64-.21.64-.63c0-.38-.37-.51-.66-.51-.34,0-.35.05-.57.14-.02-.1-.02-.2-.02-.29,0-.93.67-1.36,1.08-1.36.19,0,.56.09.56.37,0,.14-.12.17-.12.39,0,.1.05.11.15.11.29,0,.52-.29.52-.6,0-.5-.46-.73-.85-.73-.88,0-1.59.76-1.59,1.74,0,.16.01.34.06.49-.71.31-1.17,1.17-1.17,2,0,.23.05,1.89,2.06,1.89,1.55,0,2.54-1.26,2.54-2.26,0-.4-.14-.75-.47-.93.69-.33,1.65-.96,1.65-1.92Zm-3.87,1.22c.18,0,.34.05.34.29,0,.14-.11.28-.24.28-.29,0-.47-.12-.56-.43.15-.1.28-.14.45-.14Z"/>
      </g>
    </g>
  </g>
</svg>